<?xml version="1.0" standalone="no"?>
<!DOCTYPE svg PUBLIC "-//W3C//DTD SVG 1.1//EN" "http://www.w3.org/Graphics/SVG/1.1/DTD/svg11.dtd" >
<svg xmlns="http://www.w3.org/2000/svg">
<metadata>Generated by IcoMoon</metadata>
<defs>
<font id="iconfont" horiz-adv-x="1024">
<font-face units-per-em="1024" ascent="960" descent="-64" />
<missing-glyph horiz-adv-x="1024" />
<glyph unicode="&#x20;" horiz-adv-x="512" d="" />
<glyph unicode="&#xe900;" glyph-name="arrow-left" d="M262.613 635.947c-8.832-6.955-152.619-176.128-154.624-181.931-0.79-1.772-1.25-3.84-1.25-6.016s0.46-4.244 1.288-6.112l-0.038 0.096c2.219-6.4 148.651-178.133 155.989-182.912 8.789-5.76 22.656-2.304 28.885 7.211 3.413 5.205 3.456 16.853 0.128 21.845-24.667 29.68-44.209 52.549-63.993 75.202l4.217-4.93-57.259 66.56 363.008 0.853c270.421 0.64 363.904 1.365 366.421 2.816 13.653 7.851 15.701 25.728 4.096 35.456l-5.205 4.395h-364.245c-200.32 0-364.245 0.555-364.203 1.28 0 0.725 25.813 31.232 57.344 67.84s58.325 68.096 59.563 69.973c2.219 3.413 3.072 8.32 2.688 15.957-0.085 2.219-2.773 6.613-5.973 9.813-5.035 5.035-6.912 5.803-14.293 5.803-5.675 0-9.771-1.067-12.544-3.2z" />
<glyph unicode="&#xe901;" glyph-name="arrow-line-left" d="M154.539 820.523c-6.096-1.664-10.986-5.855-13.557-11.349l-0.054-0.128c-2.432-5.163-2.688-40.192-2.688-361.344 0-342.144 0.128-355.797 3.157-361.472 6.741-12.629 22.187-15.061 33.195-5.205l5.461 4.864 0.427 359.851c0.299 283.477-0.043 360.661-1.707 363.904-4.17 6.8-11.563 11.267-19.998 11.267-1.498 0-2.963-0.141-4.382-0.41l0.146 0.023zM418.56 608c-105.259-105.216-149.461-150.528-150.741-154.453-0.628-1.649-0.992-3.555-0.992-5.547s0.364-3.898 1.029-5.657l-0.037 0.11c1.28-3.925 45.483-49.237 150.741-154.453l148.949-148.907h8.021c0.047 0 0.103-0.001 0.159-0.001 11.9 0 21.547 9.647 21.547 21.547 0 1.895-0.245 3.733-0.704 5.484l0.033-0.15c-0.768 3.2-41.984 45.568-128.597 132.267l-127.445 127.573h277.291c178.304 0 279.509 0.64 283.435 1.707 16.64 4.608 21.333 25.557 8.235 36.565l-5.205 4.395h-281.472c-154.795 0-281.472 0.555-281.472 1.28 0 0.683 57.173 58.453 127.061 128.427 86.315 86.4 127.403 128.64 128.171 131.84 0.414 1.57 0.651 3.373 0.651 5.231 0 6.578-2.977 12.461-7.658 16.374l-0.034 0.027c-3.123 3.281-7.524 5.322-12.401 5.322-0.561 0-1.116-0.027-1.663-0.080l0.070 0.005h-8.021l-148.949-148.907z" />
<glyph unicode="&#xe902;" glyph-name="arrow-line-right" d="M857.515 819.968c-3.67-1.353-6.803-3.388-9.387-5.973v0l-4.181-4.437v-723.669l5.461-4.864c11.008-9.856 26.453-7.424 33.195 5.205 3.029 5.675 3.157 19.328 3.157 361.472 0 321.152-0.256 356.181-2.688 361.344-3.492 7.132-10.697 11.957-19.029 11.957-2.334 0-4.579-0.378-6.678-1.077l0.149 0.043zM434.475 751.659c-4.714-3.941-7.691-9.823-7.691-16.401 0-1.858 0.238-3.661 0.684-5.379l-0.033 0.148c0.768-3.2 41.856-45.44 128.171-131.84 69.888-69.973 127.061-127.744 127.061-128.427 0-0.725-126.677-1.28-281.472-1.28h-281.472l-5.205-4.395c-4.629-3.893-7.55-9.687-7.55-16.163 0-9.76 6.633-17.97 15.637-20.369l0.147-0.033c3.925-1.067 105.131-1.707 283.435-1.707h277.291l-127.445-127.573c-86.613-86.699-127.829-129.067-128.597-132.267-0.414-1.57-0.651-3.373-0.651-5.231 0-6.578 2.977-12.461 7.658-16.374l0.034-0.027c4.864-4.267 7.467-5.248 13.995-5.248h8.021l148.949 148.907c105.259 105.216 149.461 150.528 150.741 154.453 0.628 1.649 0.992 3.555 0.992 5.547s-0.364 3.898-1.029 5.657l0.037-0.11c-1.28 3.925-45.483 49.237-150.741 154.453l-148.949 148.907h-8.021c-0.478 0.047-1.032 0.074-1.593 0.074-4.877 0-9.278-2.041-12.395-5.315l-0.007-0.007z" />
<glyph unicode="&#xe903;" glyph-name="arrow-right" d="M735.744 634.752c-4.608-3.761-7.527-9.441-7.527-15.802 0-2.299 0.381-4.509 1.084-6.57l-0.042 0.143c1.195-3.328 26.667-34.432 60.075-73.259 31.915-37.12 58.283-68.224 58.581-69.12 0.384-1.067-127.957-1.664-363.819-1.664h-364.373l-5.205-4.395c-11.605-9.728-9.557-27.605 4.096-35.456 2.517-1.451 96-2.176 366.421-2.816l363.008-0.853-58.795-68.267c-37.291-43.349-59.349-70.315-60.331-73.856-0.463-1.647-0.729-3.538-0.729-5.491 0-11.617 9.418-21.035 21.035-21.035 2.351 0 4.612 0.386 6.723 1.097l-0.148-0.043c5.205 1.749 18.645 16.469 82.603 90.795 50.475 58.667 76.928 90.667 77.995 94.464 0.47 1.534 0.741 3.298 0.741 5.125 0 2.298-0.428 4.496-1.21 6.518l0.042-0.124c-2.005 5.675-145.963 175.019-154.581 181.803-6.272 4.949-19.072 4.352-25.643-1.195z" />
<glyph unicode="&#xe904;" glyph-name="arrows-line-horizontal" d="M503.595 818.859c-3.687-2.075-6.8-4.712-9.34-7.834l-0.047-0.059-3.541-4.821v-357.931c0-342.101 0.128-358.101 3.072-362.624 3.883-5.888 12.672-11.349 18.261-11.349s14.379 5.461 18.261 11.349c2.944 4.523 3.072 20.523 3.072 362.411 0 338.859-0.171 357.931-3.029 362.283-6.443 9.856-17.451 13.397-26.709 8.576zM242.517 592.085c-4.643-3.908-7.572-9.723-7.572-16.222 0-1.923 0.257-3.787 0.737-5.558l-0.034 0.148c1.109-4.011 14.549-18.56 48.469-52.48 25.856-25.813 46.976-47.488 46.976-48.213 0-0.683-61.483-1.28-136.619-1.28-150.827 0-143.616 0.512-149.035-10.837-3.499-7.424-3.499-11.861 0-19.285 5.845-12.245-1.963-11.605 149.547-12.544l136.149-0.853-46.976-46.933c-34.133-34.091-47.403-48.469-48.555-52.523-4.267-15.445 10.581-30.251 25.984-25.856 7.893 2.261 140.587 134.955 142.763 142.805 3.243 11.648 2.091 13.013-70.272 85.333l-68.779 68.693h-8.789c-6.955 0-9.856-0.939-13.995-4.395zM689.92 527.787c-72.448-72.363-73.6-73.771-70.272-85.376 2.261-7.893 134.955-140.587 142.805-142.763 1.609-0.437 3.457-0.688 5.364-0.688 11.735 0 21.248 9.513 21.248 21.248 0 1.882-0.245 3.707-0.704 5.444l0.033-0.148c-1.152 4.053-14.421 18.432-48.555 52.523l-46.976 46.933 136.149 0.853c151.509 0.939 143.701 0.299 149.547 12.544 3.499 7.424 3.499 11.861 0 19.285-5.419 11.349 1.792 10.837-149.035 10.837-75.136 0-136.619 0.597-136.619 1.28 0 0.725 21.12 22.4 46.976 48.213 49.707 49.664 51.627 52.224 48.427 63.872-2.56 9.216-10.283 14.635-20.821 14.635h-8.789l-68.779-68.693z" />
<glyph unicode="&#xe905;" glyph-name="arrows-outline-horizontal" d="M503.595 818.859c-3.687-2.075-6.8-4.712-9.34-7.834l-0.047-0.059-3.541-4.821v-357.931c0-342.101 0.128-358.101 3.072-362.624 3.883-5.888 12.672-11.349 18.261-11.349s14.379 5.461 18.261 11.349c2.944 4.523 3.072 20.523 3.072 362.411 0 338.859-0.171 357.931-3.029 362.283-6.443 9.856-17.451 13.397-26.709 8.576zM180.053 593.237c-2.816-1.749-34.432-32.683-70.229-68.693-68.736-69.12-68.949-69.376-66.261-82.091 0.939-4.352 15.36-19.797 67.115-71.808 36.267-36.437 68.181-67.413 70.912-68.864 10.624-5.589 24.107-1.621 28.971 8.576 3.243 6.869 3.456 11.008 0.981 17.621-1.024 2.645-22.699 25.728-48.171 51.328l-46.379 46.507h133.077c82.816 0 135.381 0.64 139.179 1.707 16.64 4.608 21.333 25.557 8.235 36.565l-5.205 4.395h-276.992l47.232 47.36c25.941 26.027 48 49.536 49.024 52.181 1.059 2.292 1.676 4.974 1.676 7.8 0 3.455-0.923 6.695-2.536 9.486l0.049-0.092c-5.077 10.667-20.139 14.635-30.677 8.021zM820.693 593.92c-4.736-2.603-10.027-11.861-10.027-17.621 0-8.32 6.187-15.659 50.816-60.459l47.232-47.36h-276.992l-5.205-4.395c-4.629-3.893-7.55-9.687-7.55-16.163 0-9.76 6.633-17.97 15.637-20.369l0.147-0.033c3.797-1.067 56.363-1.707 139.179-1.707h133.077l-46.379-46.507c-25.472-25.6-47.147-48.683-48.171-51.328-2.475-6.613-2.261-10.752 0.981-17.621 4.864-10.197 18.347-14.165 28.971-8.576 2.731 1.451 34.645 32.427 70.912 68.864 69.632 69.973 69.803 70.187 67.115 82.901-0.939 4.352-15.36 19.797-67.115 71.808-36.267 36.437-68.053 67.371-70.571 68.693-3.206 1.435-6.948 2.271-10.885 2.271-4.048 0-7.89-0.884-11.343-2.469l0.169 0.070z" />
<glyph unicode="&#xe906;" glyph-name="arrow-square-out" d="M618.667 820.523c-10.411-2.645-18.048-15.104-15.488-25.344 0.64-2.56 3.755-7.253 6.869-10.368l5.717-5.717h197.461l-257.707-257.707v-9.259c0-7.936 0.725-10.069 4.992-14.507 4.028-4.184 9.676-6.784 15.932-6.784 1.81 0 3.57 0.218 5.254 0.628l-0.151-0.031c3.2 0.768 45.824 42.24 133.12 129.451l128.427 128.299v-197.419l5.717-5.717c2.901-2.962 6.415-5.311 10.338-6.843l0.2-0.069c6.699-1.664 17.621 2.517 21.973 8.405 3.541 4.779 3.584 6.016 4.053 130.219 0.512 141.739 1.109 134.656-12.288 140.757-6.571 2.987-13.653 3.157-128.981 2.987-67.115-0.085-123.563-0.512-125.44-0.981zM181.461 691.968c-16.341-3.2-29.227-13.227-36.779-28.544l-5.589-11.392v-535.979l4.437-9.387c6.4-13.611 12.245-19.669 25.088-25.984l11.349-5.589h535.979l9.515 4.48c12.117 5.675 21.291 14.848 26.965 26.965l4.48 9.515 0.469 135.211c0.512 149.291 0.896 143.872-10.197 150.613-9.728 5.931-20.949 3.541-28.501-6.144-3.584-4.48-3.584-5.205-3.584-137.472v-132.992l-8.363-8.363h-517.461l-8.363 8.363v517.461l8.363 8.363h266.453l6.144 5.589c11.819 10.837 8.405 29.781-6.229 34.859-6.955 2.389-262.229 2.816-274.176 0.427z" />
<glyph unicode="&#xe907;" glyph-name="arrow-up-right" d="M339.371 720.64c-2.511-2.137-4.637-4.63-6.324-7.417l-0.076-0.135c-5.163-10.283 0.981-25.301 11.819-29.056 4.437-1.536 51.712-2.048 188.544-2.133l182.613-0.085-239.36-239.36c-178.603-178.603-239.744-240.768-240.939-244.864-0.45-1.631-0.708-3.503-0.708-5.436 0-11.711 9.494-21.205 21.205-21.205 1.92 0 3.781 0.255 5.55 0.734l-0.148-0.034c4.139 1.195 65.493 61.525 244.907 240.939l239.36 239.36 0.085-182.613c0.085-136.832 0.597-184.107 2.133-188.544 3.405-7.909 11.010-13.406 19.932-13.695l0.036-0.001c8.958 0.29 16.563 5.787 19.912 13.55l0.056 0.146c2.688 7.808 3.115 419.072 0.469 428.629-1.441 4.233-3.834 7.822-6.935 10.649l-0.020 0.018-5.205 4.395h-432.384l-4.523-3.84z" />
<glyph unicode="&#xe908;" glyph-name="at" d="M472.747 851.413c-54.784-6.528-98.517-19.285-142.507-41.515-89.744-45.874-158.854-121.397-195.388-213.397l-0.964-2.752c-17.052-43.255-26.936-93.354-26.936-145.762 0-36.698 4.847-72.264 13.935-106.093l-0.652 2.852c19.115-71.68 52.608-129.579 105.771-182.741 35.243-35.2 65.792-57.259 107.648-77.568 58.496-28.373 113.067-41.131 176.64-41.301 0.961-0.008 2.097-0.013 3.233-0.013 51.78 0 101.277 9.775 146.746 27.581l-2.737-0.944c33.92 13.141 80.811 39.125 90.624 50.219 8.363 9.472 3.627 27.051-8.661 32.171-8.832 3.669-14.123 2.091-32.555-9.856-42.368-27.435-98.603-47.701-151.424-54.528-22.955-2.987-69.845-2.475-93.013 0.939-133.291 19.797-242.347 106.837-289.493 231.040-25.429 67.029-29.995 145.749-12.587 216.149 33.414 129.946 133.734 230.266 261.161 263.129l2.519 0.551c55.552 13.739 121.515 13.739 176.171-0.043 143.798-37.038 251.672-156.615 270.909-304.052l0.195-1.825c3.797-29.867 2.645-83.541-2.304-106.283-8.533-39.125-25.813-65.493-51.371-78.421-15.019-7.595-42.411-11.904-59.947-9.429-36.437 5.163-60.245 36.864-71.083 94.72-2.475 12.971-3.072 32.128-3.883 123.733-0.896 99.755-1.237 108.715-4.011 112.811-8.405 12.373-29.653 10.923-36.011-2.475-2.219-4.736-2.773-11.605-2.773-35.328v-29.44l-9.941 9.472c-20.842 19.388-46.707 33.655-75.423 40.636l-1.164 0.239c-12.416 3.072-19.755 3.712-42.325 3.627-23.595-0.043-29.525-0.683-43.52-4.395-31.405-8.145-58.333-24.212-79.449-45.954l-0.039-0.041c-20.651-21.76-33.195-44.416-41.301-74.539-3.883-14.549-4.395-19.669-4.395-44.587s0.512-30.037 4.395-44.587c16.683-62.080 61.056-105.6 123.691-121.344 21.547-5.419 61.397-5.419 82.944 0 21.164 5.169 39.774 13.579 56.329 24.792l-0.606-0.387c13.611 9.131 31.957 26.368 40.661 38.272l3.755 5.12 1.109-4.011c2.048-7.296 14.080-30.848 20.907-40.875 7.893-11.648 24.363-27.349 35.456-33.877 34.133-20.011 83.627-20.181 124.672-0.469 31.275 15.019 53.76 41.515 66.901 78.891 18.901 53.888 19.541 130.731 1.579 200.021-30.561 114.736-107.104 207.583-208.183 259.287l-2.292 1.065c-33.091 17.194-71.487 30.302-111.978 37.294l-2.369 0.338c-16.256 2.901-28.757 3.755-60.587 4.139-5.432 0.123-11.833 0.193-18.251 0.193-9.786 0-19.535-0.163-29.242-0.486l1.413 0.037zM546.091 571.691c35.514-9.049 64.248-32.74 79.893-64.102l0.32-0.708c9.685-19.541 12.629-33.365 12.629-58.88s-2.944-39.339-12.629-58.88c-12.203-24.906-32.034-44.502-56.407-56.095l-0.724-0.31c-20.139-9.387-31.403-11.691-57.173-11.691s-37.035 2.304-57.173 11.691c-50.773 23.637-78.677 80.213-68.437 138.795 9.301 53.248 47.104 91.947 99.584 101.931 15.872 2.987 43.947 2.176 60.117-1.749z" />
<glyph unicode="&#xe909;" glyph-name="calendar" d="M313.216 848.768c-7.765-6.101-9.429-12.629-9.429-37.205v-22.229h-54.315c-61.525 0-66.048-0.683-80.256-11.904-6.056-4.828-10.876-10.946-14.083-17.957l-0.125-0.304-5.675-11.563v-330.283c0-315.947 0.128-330.667 3.115-339.243 4.181-11.947 17.152-26.069 28.843-31.36l9.003-4.053h643.413l9.003 4.053c11.691 5.291 24.661 19.413 28.843 31.36 2.987 8.576 3.115 23.296 3.115 339.243v330.283l-5.675 11.563c-3.332 7.315-8.152 13.433-14.11 18.186l-0.098 0.076c-14.208 11.221-18.731 11.904-80.256 11.904h-54.315v22.229c0 24.576-1.664 31.104-9.429 37.205-3.509 2.462-7.869 3.934-12.572 3.934-5.279 0-10.124-1.854-13.921-4.947l0.040 0.032c-6.784-6.059-8.405-13.44-8.448-38.4l-0.043-20.053h-327.68l-0.043 20.053c-0.043 24.96-1.664 32.341-8.448 38.4-3.757 3.061-8.602 4.915-13.881 4.915-4.703 0-9.063-1.472-12.643-3.981l0.071 0.047zM303.787 724.053c0-24.832 1.792-31.275 10.539-37.675 3.367-2.035 7.433-3.24 11.781-3.24 3.982 0 7.728 1.010 10.996 2.788l-0.121-0.060c9.003 5.888 10.24 10.069 10.923 36.395l0.64 24.405h326.912l0.64-24.405c0.683-26.325 1.92-30.507 10.923-36.395 3.147-1.718 6.893-2.728 10.875-2.728 4.348 0 8.415 1.204 11.885 3.298l-0.103-0.058c8.747 6.4 10.539 12.843 10.539 37.675v22.613h52.352c46.293 0 52.693-0.341 55.467-2.816 2.944-2.645 3.115-7.253 3.115-75.093v-72.277h-638.293v71.979c0 64.555 0.299 72.277 2.816 75.093 2.645 2.901 6.656 3.115 55.467 3.115h52.651v-22.613zM831.147 321.792v-231.979l-3.797-2.688c-3.413-2.389-36.139-2.645-315.349-2.645s-311.936 0.256-315.349 2.645l-3.797 2.688v464h638.293v-232.021z" />
<glyph unicode="&#xe90a;" glyph-name="caret-down" d="M203.435 615.808c-9.984-4.907-13.867-18.389-8.32-28.885 1.451-2.731 70.827-73.045 154.197-156.245 160.725-160.427 154.965-155.221 168.235-152.448 4.437 0.896 35.371 30.933 157.141 152.448 83.371 83.2 152.747 153.515 154.197 156.245 5.632 10.624 1.621 24.107-8.576 28.971-6.869 3.243-10.965 3.456-17.621 0.981-2.688-1.024-67.712-64.64-147.755-144.64l-142.933-142.805-142.933 142.805c-80.043 80-145.067 143.616-147.755 144.64-2.324 1.036-5.035 1.639-7.887 1.639-3.682 0-7.129-1.005-10.082-2.756l0.092 0.050z" />
<glyph unicode="&#xe90b;" glyph-name="caret-left" d="M649.387 763.904c-2.816-1.792-72.832-71.083-155.563-154.027-120.789-121.045-150.699-151.893-151.595-156.331-2.773-13.269-7.979-7.509 152.448-168.235 83.2-83.371 153.515-152.747 156.245-154.197 10.624-5.632 24.107-1.621 28.971 8.576 3.243 6.869 3.456 10.965 0.981 17.621-1.024 2.688-64.64 67.712-144.64 147.755l-142.805 142.933 142.805 142.933c80 80.043 143.616 145.067 144.64 147.755 2.475 6.656 2.261 10.752-0.981 17.621-4.992 10.496-19.968 14.251-30.507 7.595z" />
<glyph unicode="&#xe90c;" glyph-name="caret-right" d="M351.36 764.587c-4.736-2.603-10.027-11.861-10.027-17.621 0-1.92 0.811-5.632 1.792-8.277 1.024-2.688 64.64-67.712 144.64-147.755l142.805-142.933-142.805-142.933c-80-80.043-143.616-145.067-144.64-147.755-2.475-6.656-2.261-10.752 0.981-17.621 4.864-10.197 18.347-14.208 28.971-8.576 2.731 1.451 73.045 70.827 156.245 154.197 121.515 121.771 151.552 152.704 152.448 157.141 2.773 13.227 7.808 7.68-149.888 165.717-81.792 82.005-151.723 151.339-155.392 154.027-3.959 3.070-8.996 4.921-14.466 4.921-3.889 0-7.559-0.936-10.798-2.594l0.134 0.062z" />
<glyph unicode="&#xe90d;" glyph-name="caret-up" d="M502.613 616.021c-6.485-3.328-303.915-300.245-307.499-306.944-5.632-10.581-1.621-24.107 8.576-28.971 6.869-3.243 10.965-3.456 17.621-0.981 2.688 1.024 67.712 64.64 147.755 144.64l142.933 142.805 142.933-142.805c80.043-80 145.067-143.616 147.755-144.64 6.656-2.475 10.752-2.261 17.621 0.981 10.197 4.864 14.208 18.347 8.576 28.971-3.925 7.424-303.275 305.707-308.907 307.797-2.306 1.064-5.004 1.685-7.847 1.685-3.503 0-6.786-0.942-9.609-2.587l0.091 0.049z" />
<glyph unicode="&#xe90e;" glyph-name="chat" d="M472.747 851.413c-84.523-10.112-153.387-38.443-215.893-88.875-22.89-19.297-43.378-39.893-61.951-62.144l-0.641-0.79c-54.448-68.493-87.357-156.236-87.357-251.665 0-67.293 16.364-130.763 45.329-186.65l-1.066 2.261c9.557-18.645 9.6-18.859 7.637-26.837-1.109-4.395-8.576-24.491-16.597-44.672-18.731-47.061-23.211-63.957-22.315-84.523 0.768-18.389 5.547-29.355 16.939-39.125 21.035-18.005 47.147-14.635 116.011 14.933 16.299 6.997 33.664 13.952 38.656 15.403l9.003 2.688 22.571-11.776c61.952-32.299 120.661-46.677 189.781-46.507 90.923 0.213 172.672 28.16 247.467 84.565 17.579 13.269 58.709 54.4 71.979 71.979 44.928 59.605 72.448 125.781 81.621 196.267 1.932 15.175 3.034 32.733 3.034 50.548 0 35.165-4.295 69.326-12.39 101.989l0.609-2.905c-29.646 116.528-106.808 211.003-209.122 263.257l-2.292 1.063c-33.091 17.194-71.487 30.302-111.978 37.294l-2.369 0.338c-16.256 2.901-28.757 3.755-60.587 4.139-5.432 0.123-11.833 0.193-18.251 0.193-9.786 0-19.535-0.163-29.242-0.486l1.413 0.037zM560.043 807.083c161.408-20.864 290.005-149.76 311.125-311.808 1.61-14.183 2.528-30.621 2.528-47.275s-0.918-33.092-2.707-49.268l0.179 1.994c-20.048-148.395-127.445-267.114-267.988-303.615l-2.519-0.555c-25.203-6.885-54.141-10.841-84.002-10.841-1.938 0-3.873 0.017-5.803 0.050l0.29-0.004c-62.293 0.043-113.792 13.184-172.885 44.075-14.208 7.424-27.435 13.184-31.701 13.781-11.221 1.536-31.531-4.437-68.224-20.053-50.176-21.376-71.083-27.477-74.667-21.845-4.949 7.893 0.512 30.549 17.707 73.216 18.731 46.507 20.779 53.205 20.821 69.12 0.043 13.397-0.128 14.037-10.453 34.133-16.966 31.575-29.962 68.216-37.028 106.927l-0.348 2.3c-4.395 24.107-5.248 78.592-1.664 106.752 20.608 161.963 148.779 291.413 309.803 312.917 25.003 3.328 71.808 3.328 97.536 0zM326.101 487.723c-15.019-5.291-27.435-23.253-27.435-39.723 0-10.325 5.077-22.229 12.757-29.909 7.619-7.731 18.205-12.521 29.909-12.521s22.29 4.79 29.904 12.516l0.005 0.005c32.128 32.128-2.048 84.864-45.141 69.632zM496.768 487.723c-15.019-5.291-27.435-23.253-27.435-39.723 0-22.485 20.181-42.667 42.667-42.667 10.325 0 22.229 5.077 29.909 12.757 32.128 32.128-2.048 84.864-45.141 69.632zM667.435 487.723c-15.019-5.291-27.435-23.253-27.435-39.723 0-22.485 20.181-42.667 42.667-42.667 10.325 0 22.229 5.077 29.909 12.757 32.128 32.128-2.048 84.864-45.141 69.632z" />
<glyph unicode="&#xe90f;" glyph-name="check" d="M857.643 691.968c-3.456-1.067-73.984-70.443-223.147-219.605l-218.069-218.069-104.533 104.32c-57.472 57.344-106.453 105.557-108.757 107.093-9.472 6.229-24.96 1.835-29.867-8.491-1.554-2.648-2.472-5.833-2.472-9.232 0-3.369 0.902-6.527 2.477-9.246l-0.047 0.089c1.408-2.987 54.229-56.96 117.333-119.979 122.283-122.069 118.955-119.168 131.413-115.029 3.968 1.28 71.253 67.541 233.685 230.101 201.003 201.088 228.309 228.992 229.291 234.496 0.206 1.082 0.324 2.327 0.324 3.6 0 8.248-4.958 15.337-12.056 18.451l-0.129 0.051c-7.765 3.541-8.277 3.584-15.445 1.451z" />
<glyph unicode="&#xe910;" glyph-name="check-square-offset" d="M149.035 849.323c-16.512-5.717-31.36-20.352-38.656-38.144l-3.712-9.045v-708.267l3.712-9.045c7.168-17.493 20.949-31.275 38.443-38.443l9.045-3.712h708.267l9.045 3.712c17.493 7.168 31.275 20.949 38.443 38.443l3.712 9.045 0.512 280.747c0.256 154.411 0 284.16-0.597 288.341-0.642 5.263-3.104 9.856-6.727 13.214l-0.014 0.013c-4.864 4.864-6.784 5.632-14.208 5.632-10.453 0-18.091-5.504-20.736-15.061-1.152-4.139-1.749-100.864-1.749-287.317v-281.045l-4.395-5.205c-2.844-3.121-6.434-5.514-10.489-6.902l-0.177-0.053c-8.704-2.389-684.8-2.389-693.504 0-4.233 1.441-7.822 3.834-10.649 6.935l-0.018 0.020-4.395 5.205v699.819l11.605 11.605h281.344c180.949 0 283.52 0.64 287.445 1.707 16.64 4.608 21.333 25.557 8.235 36.565l-5.205 4.395-287.872-0.043c-271.787-0.085-288.384-0.256-296.704-3.115zM742.016 707.883l-144.683-144.64-118.741 118.571h-8.747c-10.539 0-18.261-5.419-20.821-14.635-3.285-11.904-2.219-13.141 69.376-84.779 71.381-71.467 72.875-72.661 84.48-69.419 7.893 2.176 311.168 305.451 313.472 313.429 0.449 1.629 0.707 3.499 0.707 5.429 0 6.507-2.931 12.329-7.544 16.219l-0.032 0.026c-4.139 3.499-7.040 4.395-14.037 4.395h-8.789l-144.64-144.597z" />
<glyph unicode="&#xe911;" glyph-name="clockwise" d="M476.16 819.883c-85.619-9.521-161.374-45.749-220.211-100.038l0.264 0.241c-48.597-45.44-90.283-115.883-105.856-179.072-6.974-27.936-10.975-60.008-10.975-93.013s4.001-65.077 11.546-95.755l-0.57 2.742c15.573-63.189 57.259-133.632 105.856-179.072 59.884-55.539 138.006-92.17 224.442-99.988l1.478-0.108c85.205-7.68 180.949 19.456 250.027 70.827 18.56 13.824 44.331 36.949 47.104 42.283 1.614 2.896 2.565 6.354 2.565 10.033 0 11.546-9.36 20.907-20.907 20.907-2.007 0-3.947-0.283-5.784-0.81l0.148 0.036c-3.499-0.939-11.477-6.741-19.499-14.123-83.413-76.544-198.912-105.472-306.603-76.843-96.725 25.771-173.056 88.832-215.68 178.219-22.101 46.379-31.573 88.96-31.573 141.653s9.472 95.275 31.573 141.653c42.453 89.088 118.187 151.765 215.211 178.176 74.837 20.352 159.104 11.563 231.083-24.064 40.192-19.925 59.947-35.925 130.133-105.429l55.211-54.656-149.077-1.707-5.845-6.357c-4.949-5.419-5.845-7.637-5.845-14.592 0-4.608 1.152-9.813 2.645-11.947 6.357-9.045 4.651-8.917 113.749-8.875 77.525 0 102.187 0.512 105.429 2.133 3.239 2.093 5.939 4.725 8.045 7.798l0.062 0.096 3.883 5.803v100.523c0 109.312 0.256 106.112-9.6 113.835-8.789 6.955-24.235 3.541-30.293-6.741-2.432-4.139-2.773-13.184-2.773-77.696v-73.003l-57.6 57.088c-31.659 31.445-63.531 61.952-70.784 67.84-20.494 16.626-43.609 31.513-68.275 43.743l-2.167 0.972c-32.672 16.564-70.608 28.809-110.613 34.699l-2.027 0.245c-21.76 3.285-66.901 4.48-87.893 2.347z" />
<glyph unicode="&#xe912;" glyph-name="close" d="M199.851 762.752c-4.645-3.916-7.576-9.738-7.576-16.245 0-1.93 0.258-3.801 0.741-5.578l-0.034 0.149c1.195-4.053 38.912-42.837 145.365-149.291l143.787-143.787-143.787-143.787c-106.453-106.453-144.171-145.237-145.365-149.291-0.45-1.631-0.708-3.503-0.708-5.436 0-11.711 9.494-21.205 21.205-21.205 1.92 0 3.781 0.255 5.55 0.734l-0.148-0.034c4.139 1.195 42.411 38.443 149.333 145.365l143.787 143.787 143.787-143.787c106.923-106.923 145.195-144.171 149.333-145.365 1.621-0.444 3.481-0.7 5.402-0.7 11.711 0 21.205 9.494 21.205 21.205 0 1.933-0.259 3.805-0.743 5.584l0.034-0.149c-1.195 4.053-38.912 42.837-145.365 149.291l-143.787 143.787 143.787 143.787c106.453 106.453 144.171 145.237 145.365 149.291 0.449 1.629 0.707 3.499 0.707 5.429 0 6.507-2.931 12.329-7.544 16.219l-0.032 0.026c-4.139 3.499-7.040 4.395-14.037 4.395h-8.789l-289.323-289.237-289.323 289.237h-8.789c-6.997 0-9.899-0.896-14.037-4.395z" />
<glyph unicode="&#xe913;" glyph-name="copy" d="M343.893 819.371c-3.311-1.576-6.136-3.623-8.526-6.093l-0.008-0.008c-3.328-3.712-3.413-6.571-3.883-94.080l-0.469-90.283h-88.277c-85.547 0-88.448-0.128-93.909-3.456-11.264-6.869-10.581 10.88-10.581-274.261 0-247.68 0.128-259.328 3.115-264.917 1.707-3.157 5.76-7.211 8.917-8.917 5.589-2.987 17.237-3.115 264.917-3.115 278.101 0 265.557-0.384 273.451 8.491 3.328 3.712 3.413 6.571 3.883 94.037l0.469 90.24 90.24 0.469c87.467 0.469 90.325 0.555 94.037 3.883 8.875 7.893 8.491-4.651 8.491 273.195 0 284.075 0.64 266.069-9.941 273.28-4.352 2.944-16.939 3.072-265.685 3.456-214.272 0.299-262.059-0.043-266.24-1.92zM843.093 544.427v-234.667h-150.187l-0.043 152.32c-0.085 164.779 0.384 157.013-9.472 163.499-4.821 3.2-9.6 3.285-157.312 3.328h-152.32v150.187h469.333v-234.667zM650.24 351.573v-234.667h-469.333v469.333h469.333v-234.667z" />
<glyph unicode="&#xe914;" glyph-name="dots-three" d="M239.403 492.971c-12.45-5.261-22.21-14.855-27.559-26.848l-0.132-0.33c-2.138-5.227-3.378-11.293-3.378-17.649 0-26.392 21.395-47.787 47.787-47.787 6.252 0 12.223 1.2 17.696 3.383l-0.323-0.114c32.341 12.075 40.576 55.979 14.848 79.147-8.609 8.010-20.19 12.926-32.92 12.926-5.74 0-11.247-1-16.356-2.834l0.337 0.106zM494.976 492.843c-10.539-3.755-24.235-17.749-27.904-28.501-6.272-18.432-2.176-36.011 11.52-49.749 19.413-19.371 47.403-19.371 66.816 0 19.371 19.413 19.371 47.403 0 66.816-8.599 8.886-20.633 14.401-33.956 14.401-5.917 0-11.58-1.088-16.8-3.075l0.324 0.108zM750.976 492.843c-10.539-3.755-24.235-17.749-27.904-28.501-6.272-18.432-2.176-36.011 11.52-49.749 19.413-19.371 47.403-19.371 66.816 0 19.371 19.413 19.371 47.403 0 66.816-8.599 8.886-20.633 14.401-33.956 14.401-5.917 0-11.58-1.088-16.8-3.075l0.324 0.108z" />
<glyph unicode="&#xe915;" glyph-name="dots-three-vertical" d="M494.976 748.843c-10.539-3.755-24.235-17.749-27.904-28.501-10.667-31.36 12.288-64.128 44.928-64.128 12.8 0 23.68 4.693 33.408 14.379 19.371 19.413 19.371 47.403 0 66.816-8.599 8.886-20.633 14.401-33.956 14.401-5.917 0-11.58-1.088-16.8-3.075l0.324 0.108zM494.976 492.843c-10.539-3.755-24.235-17.749-27.904-28.501-6.272-18.432-2.176-36.011 11.52-49.749 19.413-19.371 47.403-19.371 66.816 0 19.371 19.413 19.371 47.403 0 66.816-8.599 8.886-20.633 14.401-33.956 14.401-5.917 0-11.58-1.088-16.8-3.075l0.324 0.108zM495.403 236.971c-12.45-5.261-22.21-14.855-27.559-26.848l-0.132-0.33c-2.138-5.227-3.378-11.293-3.378-17.649 0-26.392 21.395-47.787 47.787-47.787 6.252 0 12.223 1.2 17.696 3.383l-0.323-0.114c32.341 12.075 40.576 55.979 14.848 79.147-8.609 8.010-20.19 12.926-32.92 12.926-5.74 0-11.247-1-16.356-2.834l0.337 0.106z" />
<glyph unicode="&#xe916;" glyph-name="download" d="M503.595 818.859c-3.687-2.075-6.8-4.712-9.34-7.834l-0.047-0.059c-3.541-4.779-3.541-5.547-4.011-205.611l-0.427-200.747-67.883 67.755c-71.552 71.467-68.523 68.992-82.261 67.797-10.411-0.896-18.517-12.971-16.384-24.448 0.811-4.352 18.645-23.040 89.344-93.568 48.555-48.469 90.112-89.045 92.331-90.155 1.969-0.826 4.258-1.306 6.659-1.306 1.268 0 2.505 0.134 3.697 0.388l-0.115-0.021c5.419 0.981 18.048 12.928 95.403 90.155 71.509 71.424 89.387 90.112 90.197 94.507 2.133 11.435-5.973 23.552-16.384 24.448-13.739 1.195-10.709 3.669-82.261-67.797l-67.883-67.755-0.427 200.533c-0.427 188.288-0.64 200.832-3.499 205.141-6.443 9.856-17.451 13.397-26.709 8.576zM148.821 369.451c-11.008-6.699-10.709-2.944-10.197-134.443l0.469-119.040 5.589-11.349c6.315-12.843 12.373-18.688 25.984-25.088l9.387-4.437h663.893l9.515 4.48c12.117 5.675 21.291 14.848 26.965 26.965l4.48 9.515 0.469 118.997c0.512 131.456 0.811 127.701-10.197 134.4-10.283 6.272-24.192 2.987-29.781-7.125-1.707-3.072-2.176-28.971-2.261-120.491l-0.043-116.565-8.363-8.363h-645.461l-8.363 8.363-0.043 116.565c-0.085 91.52-0.555 117.419-2.261 120.491-5.589 10.112-19.499 13.397-29.781 7.125z" />
<glyph unicode="&#xe917;" glyph-name="eye" d="M472.747 755.883l-23.040-2.517c-129.024-13.739-250.795-83.413-339.499-194.304-34.219-42.795-67.541-97.749-67.541-111.36 0-10.112 27.221-57.301 52.907-91.776 94.677-126.933 219.776-200.277 366.677-215.040 22.741-2.304 76.757-2.304 99.499 0 146.901 14.763 272 88.107 366.677 215.040 25.685 34.475 52.907 81.664 52.907 91.776 0 8.832-20.395 46.421-42.283 77.952-39.808 57.344-97.707 114.432-152.277 150.272-58.3 38.848-127.677 66.014-202.412 76.459l-2.602 0.298c-18.432 2.603-95.061 4.821-109.013 3.2zM582.827 709.376c91.648-14.165 168.875-51.499 241.664-116.821 37.589-33.792 82.219-90.24 105.856-133.888l5.76-10.667-5.76-10.667c-3.2-5.888-11.52-19.456-18.56-30.251-64.213-98.304-152.192-168.576-253.013-202.112-48.64-16.171-93.141-23.211-146.773-23.211s-98.133 7.040-146.773 23.211c-100.821 33.536-188.8 103.808-253.013 202.112-7.040 10.795-15.36 24.363-18.56 30.208l-5.76 10.624 5.12 9.728c2.816 5.376 12.544 20.949 21.589 34.603 82.347 124.373 204.672 203.52 337.664 218.496l22.187 2.475c16.597 1.92 87.168-0.597 108.373-3.84zM480.128 626.389c-60.587-11.008-112.939-53.376-135.765-109.867-48.213-119.381 39.211-249.429 167.637-249.429 0.089 0 0.194 0 0.299 0 99.747 0 180.608 80.861 180.608 180.608 0 0.105 0 0.21 0 0.315v-0.017c0 0.065 0 0.142 0 0.219 0 88.966-64.25 162.925-148.88 178.009l-1.094 0.162c-9.437 1.446-20.323 2.272-31.403 2.272s-21.966-0.826-32.602-2.42l1.199 0.148zM554.411 579.584c22.741-7.637 37.888-17.024 55.040-34.133 16.981-17.024 26.368-32.043 34.304-55.040 5.291-15.317 5.504-17.024 5.504-42.411s-0.213-27.093-5.504-42.411c-7.037-21.709-18.85-40.212-34.259-54.997l-0.045-0.043c-14.853-15.54-33.4-27.424-54.236-34.253l-0.932-0.264c-15.019-5.077-17.152-5.333-42.283-5.333s-27.264 0.256-42.283 5.333c-21.768 7.093-40.315 18.978-55.121 34.468l-0.047 0.050c-15.429 14.749-27.227 33.167-34 53.86l-0.262 0.924c-5.333 15.573-5.547 17.237-5.547 42.667s0.213 27.093 5.547 42.667c7.296 21.12 16.64 36.693 31.445 52.309 13.874 14.854 30.952 26.53 50.149 33.948l0.923 0.314c20.096 7.552 29.227 8.917 54.315 8.277 18.475-0.469 23.467-1.28 37.291-5.931z" />
<glyph unicode="&#xe918;" glyph-name="eye-closed" d="M122.24 560.555c-8.916-2.757-15.281-10.927-15.281-20.584 0-1.795 0.22-3.54 0.635-5.207l-0.031 0.148c2.603-9.045 38.315-48.555 68.736-76.032l14.976-13.568-40.448-69.888c-22.229-38.485-41.557-72.832-42.965-76.331-5.12-12.843 3.456-26.155 18.091-28.075 12.629-1.621 14.592 0.939 58.368 76.629 22.059 38.187 40.576 69.845 41.173 70.443 0.597 0.555 9.429-4.395 19.627-11.093 32.853-21.461 79.872-43.051 119.125-54.699 9.344-2.773 17.195-5.248 17.451-5.547 0.299-0.256-5.291-33.067-12.373-72.917-14.037-79.147-14.123-81.152-4.736-88.533 3.664-2.903 8.354-4.657 13.453-4.657 7.502 0 14.117 3.796 18.029 9.572l0.049 0.077c2.091 2.944 6.827 26.155 15.36 75.093 6.784 38.955 12.544 71.125 12.8 71.467 0.299 0.341 11.093-0.811 24.064-2.517 31.872-4.267 96.128-4.224 127.445 0.043 12.075 1.621 22.485 2.347 23.168 1.536 0.683-0.768 6.4-31.36 12.715-67.968 6.357-36.608 12.245-68.949 13.141-71.808 2.441-8.984 10.524-15.482 20.125-15.482 8.307 0 15.477 4.864 18.818 11.9l0.054 0.126 3.456 7.168-12.885 73.045c-7.083 40.192-12.587 73.344-12.245 73.728 4.187 1.647 10.052 3.584 16.018 5.284l1.604 0.391c45.825 14.349 85.678 33.205 122.265 56.704l-1.987-1.195c9.6 6.272 18.005 10.795 18.688 10.027 0.64-0.768 18.645-31.744 39.979-68.821s40.405-69.163 42.368-71.253c12.416-13.312 35.413-4.011 35.413 14.336 0 6.869-4.181 14.891-41.941 80.384l-41.984 72.704 15.104 13.611c30.507 27.605 66.176 67.072 68.779 76.117 0.384 1.518 0.605 3.26 0.605 5.054 0 9.672-6.411 17.847-15.216 20.507l-0.152 0.039c-10.965 3.029-16.128-0.085-34.389-20.864-84.736-96.128-181.973-148.736-302.379-163.584-23.083-2.859-82.731-2.859-105.813 0-120.192 14.848-219.563 68.608-302.421 163.669-8.405 9.643-16.555 18.176-18.133 18.987-3.067 1.614-6.702 2.561-10.558 2.561-2.040 0-4.018-0.265-5.902-0.763l0.161 0.036z" />
<glyph unicode="&#xe919;" glyph-name="filter" d="M412.16 761.515c-3.633-3.38-6.103-7.966-6.772-13.117l-0.012-0.109c-0.597-4.181-0.853-55.637-0.555-114.347 0.469-98.56 0.725-107.093 3.541-111.317 3.809-6.236 10.578-10.335 18.304-10.335s14.495 4.099 18.251 10.242l0.053 0.094c2.688 4.011 3.072 10.069 3.541 50.304l0.555 45.739h215.339c210.603 0 215.509 0.085 220.843 3.328 6.111 3.876 10.236 10.409 10.748 17.934l0.004 0.071c-0.516 7.596-4.641 14.13-10.658 17.95l-0.094 0.056c-5.333 3.243-10.24 3.328-220.928 3.328h-215.467v42.24c0 23.552-0.811 45.013-1.749 48.512-2.645 9.557-10.283 15.061-20.736 15.061-7.424 0-9.344-0.768-14.208-5.632zM138.752 658.005c-6.304-3.551-10.492-10.201-10.492-17.829 0-3.984 1.142-7.701 3.118-10.842l-0.050 0.085c6.741-11.051 5.632-10.923 89.813-10.368l76.075 0.469 5.845 6.357c10.069 11.008 7.253 25.984-6.187 32.939-4.053 2.091-16.853 2.517-78.763 2.517-70.272 0-74.155-0.171-79.36-3.328zM668.16 377.515c-3.633-3.38-6.103-7.966-6.772-13.117l-0.012-0.109c-0.597-4.181-0.853-55.637-0.555-114.347 0.469-98.56 0.725-107.093 3.541-111.317 3.809-6.236 10.578-10.335 18.304-10.335s14.495 4.099 18.251 10.242l0.053 0.094c2.688 4.011 3.072 10.069 3.541 50.304l0.555 45.739h87.339c83.669 0 87.595 0.171 92.843 3.328 6.304 3.551 10.492 10.201 10.492 17.829 0 3.984-1.142 7.701-3.118 10.842l0.050-0.085c-6.699 10.965-4.523 10.752-100.693 10.752h-87.125v42.24c0 23.552-0.811 45.013-1.749 48.512-2.645 9.557-10.283 15.061-20.736 15.061-7.424 0-9.344-0.768-14.208-5.632zM138.752 274.005c-6.304-3.551-10.492-10.201-10.492-17.829 0-3.984 1.142-7.701 3.118-10.842l-0.050 0.085c7.040-11.563-7.893-10.837 217.771-10.325l204.117 0.427 5.845 6.357c4.779 5.248 5.845 7.723 5.845 13.867 0.015 0.276 0.023 0.6 0.023 0.925 0 4.16-1.353 8.004-3.643 11.116l0.036-0.052c-7.979 10.155 4.949 9.6-215.211 9.6-197.248 0-202.027-0.085-207.36-3.328z" />
<glyph unicode="&#xe91a;" glyph-name="folder" d="M147.541 787.755c-9.088-2.219-22.997-10.795-28.245-17.408-3.198-4.231-6.139-9.016-8.605-14.075l-0.227-0.517-3.797-8.235v-600.747l4.053-9.003c5.547-12.203 19.797-25.131 31.531-28.544 7.851-2.304 51.968-2.56 374.059-2.133l365.184 0.427 9.131 5.077c11.435 6.315 19.712 15.829 23.68 27.179 2.859 8.192 3.029 22.613 3.029 244.224v235.52l-3.797 8.235c-4.914 11.714-13.555 21.057-24.413 26.741l-0.291 0.139-10.752 5.845-356.651 0.939-58.923 58.624c-44.928 44.757-61.099 59.819-68.267 63.573l-9.387 4.864-116.053 0.299c-63.829 0.128-118.4-0.299-121.259-1.024zM417.28 704l42.624-42.667h-309.717v39.552c0 34.389 0.384 39.936 2.816 42.667 2.688 2.944 8.405 3.115 112.213 3.115h109.44l42.624-42.667zM870.699 615.851c2.987-2.731 3.115-12.16 3.115-232.619 0-176.469-0.469-230.272-2.048-231.851-2.987-2.987-716.544-2.987-719.531 0-1.579 1.579-2.048 56.021-2.048 234.667v232.619h358.699c331.349 0 358.912-0.213 361.813-2.816z" />
<glyph unicode="&#xe91b;" glyph-name="folders" d="M251.435 786.219c-15.829-5.547-27.008-16.555-33.109-32.64-2.901-7.68-3.285-13.312-3.285-50.347v-41.685l-89.6-1.067-9.771-4.779c-12.255-6.33-21.701-16.66-26.746-29.232l-0.134-0.379c-3.413-9.131-3.456-12.16-3.456-242.091s0.043-232.96 3.456-242.091c4.651-12.416 14.933-23.723 26.88-29.611l9.771-4.779 319.915-0.427c365.099-0.512 331.648-1.963 348.373 14.763 14.379 14.421 15.232 18.304 15.232 70.443v42.368h43.221c53.077 0 56.832 0.811 71.253 15.232 16.341 16.341 15.232 0.597 15.232 212.608 0 205.824 0.64 194.645-11.904 210.517-4.828 6.056-10.946 10.876-17.957 14.083l-0.304 0.125-11.563 5.675-298.752 1.707-56.32 41.771c-30.976 22.955-60.544 44.075-65.707 46.933l-9.387 5.163-103.253 0.384c-95.744 0.384-103.893 0.213-112.085-2.645zM515.413 702.933c32.384-24.021 61.952-45.312 65.707-47.317 6.784-3.669 7.339-3.669 157.269-4.523 144.896-0.811 150.571-0.981 154.027-4.096l3.584-3.243v-181.163c0-138.624-0.469-181.632-2.048-183.211-1.493-1.493-13.525-2.048-43.52-2.048h-41.472v120.875c0 135.125 0.299 131.371-11.904 146.816-4.828 6.056-10.946 10.876-17.957 14.083l-0.304 0.125-11.563 5.675-298.752 1.707-56.32 41.771c-30.976 22.955-60.544 44.075-65.707 46.933l-9.387 5.163-79.36 1.109v39.125c0 36.864 0.213 39.339 3.413 42.539 3.328 3.328 5.675 3.413 99.413 3.371l96-0.043 58.88-43.648zM385.707 574.933c32.384-24.021 61.952-45.312 65.707-47.317 6.784-3.669 7.339-3.669 157.269-4.523 144.896-0.811 150.571-0.981 154.027-4.096l3.584-3.243v-181.163c0-138.624-0.469-181.632-2.048-183.211s-74.027-2.048-315.733-2.048c-311.424 0-313.728 0.043-317.099 3.413s-3.413 5.675-3.413 231.253 0.043 227.883 3.413 231.253c3.328 3.328 5.675 3.413 99.413 3.371l96-0.043 58.88-43.648z" />
<glyph unicode="&#xe91c;" glyph-name="gantt" d="M455.851 890.752c-3.121-2.844-5.514-6.434-6.902-10.489l-0.053-0.177c-1.067-3.883-1.749-38.528-1.749-91.179v-84.907h-182.784c-165.632 0-183.339-0.256-188.672-2.773-14.805-7.040-14.805-30.080 0-37.12 5.333-2.517 23.040-2.773 188.672-2.773h182.784v-170.667h-140.117c-126.165 0-140.715-0.299-146.005-2.773-14.805-7.040-14.805-30.080 0-37.12 5.291-2.475 19.84-2.773 146.005-2.773h140.117v-170.667h-97.451c-107.605 0-106.24 0.128-111.872-10.709-5.632-10.923-1.707-24.32 8.533-29.184 5.248-2.475 16.683-2.773 103.296-2.773h97.408l0.469-109.739c0.427-101.461 0.683-110.080 3.499-114.304 3.809-6.236 10.578-10.335 18.304-10.335s14.495 4.099 18.251 10.242l0.053 0.094c2.859 4.352 3.072 26.965 3.541 431.317 0.256 234.709 0 430.165-0.597 434.347-0.63 5.266-3.095 9.862-6.727 13.213l-0.015 0.013c-4.864 4.864-6.784 5.632-14.208 5.632-6.699 0-9.685-0.939-13.781-4.395zM587.435 701.141c-14.549-7.168-14.421-30.037 0.256-37.035 5.163-2.432 14.464-2.773 73.643-2.773s68.48 0.341 73.643 2.773c14.805 7.040 14.805 30.080 0 37.12-5.163 2.432-14.421 2.773-73.899 2.731-59.307-0.043-68.736-0.384-73.643-2.816zM587.435 487.808c-14.549-7.168-14.421-30.037 0.256-37.035 5.248-2.475 17.664-2.773 116.309-2.773s111.061 0.299 116.309 2.773c14.805 7.040 14.805 30.080 0 37.12-5.248 2.475-17.621 2.773-116.565 2.731-98.731-0.043-111.275-0.341-116.309-2.816zM587.435 274.475c-14.549-7.168-14.421-30.037 0.256-37.035 5.333-2.517 22.4-2.773 180.309-2.773 192.768 0 182.997-0.555 188.843 10.709 5.632 10.923 1.707 24.32-8.533 29.184-5.333 2.517-22.4 2.773-180.565 2.731-157.824-0.043-175.232-0.299-180.309-2.816z" />
<glyph unicode="&#xe91d;" glyph-name="hourglass-medium" d="M265.301 847.616c-12.544-5.973-23.253-17.579-27.563-29.824-2.816-8.021-3.072-16.213-3.072-90.752v-81.92l4.779-10.24c2.645-5.632 6.485-12.075 8.533-14.293 2.091-2.261 54.315-42.069 116.096-88.448l112.341-84.352-110.635-82.901c-60.843-45.568-113.067-85.163-116.053-87.979-2.944-2.773-7.552-9.813-10.24-15.573l-4.821-10.453v-81.92c0-95.829-0.299-93.867 16.085-110.208 17.536-17.536-6.229-16.085 261.248-16.085s243.712-1.451 261.248 16.085c16.341 16.341 16.085 14.592 16.085 108.501 0 90.411-0.085 91.051-12.757 105.259-3.627 4.053-56.533 45.013-117.589 91.008s-110.976 84.011-110.976 84.48c0 0.469 49.963 38.485 111.019 84.48s113.963 86.955 117.589 91.008c12.629 14.251 12.715 14.891 12.715 105.259 0 72.917-0.299 81.024-3.072 89.045-5.207 13.189-14.937 23.652-27.237 29.68l-0.326 0.144-10.325 4.864h-472.747l-10.325-4.864zM743.765 807.765c1.536-1.536 2.048-21.461 2.048-79.104v-77.056l-29.781-22.699h-409.941l-12.587 9.429c-5.184 3.688-9.737 7.469-13.992 11.558l0.040-0.038c-2.304 3.669-1.664 155.563 0.683 157.909 2.987 2.987 460.544 2.987 463.531 0zM654.208 582.272c-23.354-18.692-69.713-53.789-116.393-88.478l-26.028-18.487c-0.512 0-34.219 24.96-74.88 55.467l-73.941 55.467h296.064l-4.821-3.968zM492.928 277.675c5.589-9.856 20.437-13.397 30.464-7.253 9.899 6.016 9.856 5.931 10.795 72.277l0.853 61.099 210.816-159.36-0.469-77.824-0.427-77.781-4.267-2.133c-3.371-1.707-51.157-2.176-228.693-2.176s-225.323 0.469-228.693 2.176l-4.267 2.133-0.427 77.611c-0.213 42.709 0.171 78.464 0.853 79.445 0.725 1.024 48.128 36.992 105.387 79.915l104.107 78.037 0.853-61.099c0.64-46.080 1.408-62.123 3.115-65.067z" />
<glyph unicode="&#xe91e;" glyph-name="house" d="M495.573 839.211c-4.821-1.707-10.581-4.352-12.8-5.803-4.864-3.243-307.968-278.485-324.395-294.571-6.955-6.827-12.971-14.635-15.36-19.883l-3.925-8.661v-394.24l4.437-9.387c6.4-13.611 12.245-19.669 25.088-25.984l11.349-5.589h108.416c107.136 0 108.501 0.043 116.309 3.627 10.795 5.035 21.333 14.933 26.795 25.259l4.565 8.661 0.853 106.368c0.811 102.827 0.981 106.453 4.181 108.8 4.907 3.584 136.917 3.584 141.824 0 3.2-2.347 3.371-5.973 4.181-108.8l0.853-106.368 4.565-8.661c5.461-10.325 16-20.224 26.795-25.259 7.808-3.584 9.173-3.627 116.267-3.627h108.373l9.515 4.48c12.117 5.675 21.291 14.848 26.965 26.965l4.48 9.515v394.24l-3.925 8.661c-3.986 7.337-8.816 13.623-14.479 19.046l-0.028 0.026c-5.803 5.717-80.853 74.24-166.741 152.277-110.208 100.096-158.677 143.104-164.779 146.091-11.861 5.803-27.861 6.955-39.381 2.816zM522.624 793.173c28.757-25.515 308.992-280.32 314.069-285.568l6.4-6.571v-375.765l-8.363-8.363h-98.773c-82.517 0-99.243 0.384-102.016 2.432-3.2 2.347-3.371 5.973-4.181 107.947l-0.853 105.515-4.736 9.643c-5.701 11.076-14.455 19.899-25.15 25.531l-0.322 0.155-7.339 3.925h-158.72l-8.661-4.565c-10.964-6.234-19.636-15.399-25.098-26.435l-0.161-0.36c-3.541-7.723-3.627-10.155-4.48-113.408-0.811-101.973-0.981-105.6-4.181-107.947-2.773-2.048-19.499-2.432-102.016-2.432h-98.773l-8.363 8.363v375.765l6.4 6.571c5.077 5.248 285.312 260.053 314.069 285.568 3.968 3.499 8.747 6.4 10.624 6.4s6.656-2.901 10.624-6.4z" />
<glyph unicode="&#xe91f;" glyph-name="important" d="M254.293 887.296c-3.816-1.739-7.104-3.852-10.042-6.363l0.058 0.048c-9.387-8.789-8.789 21.76-8.789-440.533v-427.52l6.016-6.059c5.291-5.248 7.083-6.016 14.464-6.016 7.339 0 9.173 0.768 14.421 6.016l6.059 6.016 0.853 375.979 241.493 83.328c132.821 45.824 243.371 84.736 245.675 86.4 6.889 4.787 11.404 12.572 11.647 21.424l0.001 0.037c1.024 11.989-3.925 21.291-14.891 28.245-14.464 9.131-478.379 275.243-485.419 278.485-8.491 3.84-13.611 3.968-21.547 0.512z" />
<glyph unicode="&#xe920;" glyph-name="kanban" d="M97.749 829.483c-6.979-3.665-11.797-10.615-12.411-18.739l-0.005-0.077c0-7.296 5.931-16 12.8-18.859 8.832-3.712 818.901-3.712 827.733 0 7.196 3.52 12.197 10.542 12.796 18.785l0.004 0.074c-0.603 8.316-5.604 15.338-12.666 18.799l-0.134 0.059c-8.704 3.669-819.712 3.584-828.117-0.043zM181.419 700.672c-11.605-7.083-10.752 18.219-10.752-317.013 0-297.941 0.085-303.531 3.328-308.907 6.869-11.264-0.171-10.752 146.005-10.752s139.136-0.512 146.005 10.752c3.243 5.376 3.328 10.965 3.328 308.907 0 335.232 0.853 309.931-10.752 317.013-5.291 3.2-9.557 3.328-138.581 3.328s-133.291-0.128-138.581-3.328zM565.419 700.672c-11.264-6.869-10.752 0.213-10.752-146.347 0-128.683 0.128-132.949 3.328-138.24 6.869-11.264-0.171-10.752 146.005-10.752s139.136-0.512 146.005 10.752c3.2 5.291 3.328 9.557 3.328 138.24 0 146.56 0.512 139.477-10.752 146.347-5.291 3.2-9.557 3.328-138.581 3.328s-133.291-0.128-138.581-3.328zM426.667 384v-277.333h-213.333v554.667h213.333v-277.333zM810.667 554.667v-106.667h-213.333v213.333h213.333v-106.667z" />
<glyph unicode="&#xe921;" glyph-name="link" d="M680.107 825.856c-29.397-2.731-51.456-8.875-76.117-21.248-24.832-12.459-39.211-24.491-88.875-74.453-49.707-50.005-50.603-51.243-45.227-64.128 3.456-8.277 10.197-12.373 20.181-12.373h8.107l47.445 47.019c26.112 25.856 51.371 49.877 56.192 53.333 25.399 18.117 57.071 28.966 91.276 28.966 17.789 0 34.892-2.934 50.853-8.345l-1.115 0.328c51.311-17.887 89.727-60.6 101.232-113.367l0.187-1.022c4.096-19.371 3.285-49.664-1.835-69.675-5.474-20.199-13.842-37.881-24.778-53.645l0.373 0.568c-8.363-11.648-124.288-128.469-140.075-141.141-39.253-31.573-87.979-42.624-135.211-30.677-20.011 5.077-46.080 18.133-60.373 30.251-16.555 14.037-19.755 15.915-27.819 15.915-11.203-0.201-20.207-9.33-20.207-20.562 0-2.069 0.306-4.067 0.874-5.951l-0.038 0.146c3.968-12.032 32.768-34.901 60.416-47.957 48.853-23.125 100.053-25.472 151.765-6.997 38.059 13.611 50.389 23.467 132.736 106.368 53.717 54.016 69.589 70.997 77.312 82.773 20.587 30.62 32.859 68.324 32.859 108.893 0 40.024-11.944 77.259-32.462 108.334l0.457-0.736c-28.672 44.416-77.099 76.843-128.512 86.059-15.104 2.731-38.912 4.309-49.621 3.328zM420.053 575.915c-38.188-5.071-72.125-20.24-99.92-42.707l0.378 0.296c-6.869-5.504-42.112-39.851-78.293-76.331-52.096-52.48-67.883-69.461-75.605-81.152-20.587-30.62-32.859-68.324-32.859-108.893 0-40.024 11.944-77.259 32.462-108.334l-0.457 0.736c39.296-60.885 113.28-96.597 184.064-88.917 33.924 3.595 64.592 15.038 90.954 32.47l-0.756-0.47c20.267 13.355 112.085 104.021 114.901 113.451 4.651 15.488-10.795 30.976-26.155 26.24-2.176-0.683-25.472-22.485-51.755-48.469-49.92-49.323-62.123-59.221-84.651-68.693-17.997-8.079-39.009-12.785-61.12-12.785-16.782 0-32.93 2.711-48.031 7.718l1.077-0.309c-102.912 32.213-141.269 159.787-73.429 244.139 5.888 7.296 38.613 40.96 72.704 74.837 66.901 66.389 76.672 74.411 102.912 84.565 20.48 7.893 35.029 10.496 58.112 10.496 26.453 0 45.141-4.352 68.267-15.872 9.387-4.651 22.059-12.715 28.16-17.877 16.427-13.909 20.48-16.213 28.459-16.213 11.203 0.201 20.207 9.33 20.207 20.562 0 2.069-0.306 4.067-0.874 5.951l0.038-0.146c-3.627 10.965-31.872 33.963-57.557 46.805-31.701 15.872-75.733 23.381-111.232 18.901z" />
<glyph unicode="&#xe922;" glyph-name="list-bullets" d="M159.787 748.971c-12.16-3.712-24.96-17.067-29.099-30.208-14.464-46.251 40.363-82.219 76.629-50.261 12.117 10.624 15.36 18.176 15.36 35.499s-3.243 24.875-15.36 35.499c-13.312 11.733-29.611 14.976-47.531 9.472zM339.371 720.64c-2.511-2.137-4.637-4.63-6.324-7.417l-0.076-0.135c-5.163-10.283 0.981-25.301 11.819-29.056 7.808-2.688 514.603-3.115 524.203-0.469 7.577 2.759 13.423 8.675 16.029 16.114l0.056 0.185c1.621 6.4-0.683 12.672-6.912 18.901l-5.717 5.717h-528.555l-4.523-3.84zM159.787 492.971c-12.16-3.712-24.96-17.067-29.099-30.208-14.464-46.251 40.363-82.219 76.629-50.261 12.117 10.624 15.36 18.176 15.36 35.499s-3.243 24.875-15.36 35.499c-13.312 11.733-29.611 14.976-47.531 9.472zM340.949 465.792c-14.507-7.851-11.989-32.299 3.84-37.76 7.808-2.688 514.603-3.115 524.203-0.469 7.577 2.759 13.423 8.675 16.029 16.114l0.056 0.185c1.621 6.4-0.683 12.672-6.912 18.901l-5.717 5.717-263.424-0.085c-229.675-0.043-264.021-0.384-268.075-2.603zM159.787 236.971c-12.16-3.712-24.96-17.067-29.099-30.208-14.464-46.251 40.363-82.219 76.629-50.261 12.117 10.624 15.36 18.176 15.36 35.499s-3.243 24.875-15.36 35.499c-13.312 11.733-29.611 14.976-47.531 9.472zM340.949 209.792c-14.507-7.851-11.989-32.299 3.84-37.76 7.808-2.688 514.603-3.115 524.203-0.469 7.577 2.759 13.423 8.675 16.029 16.114l0.056 0.185c1.621 6.4-0.683 12.672-6.912 18.901l-5.717 5.717-263.424-0.085c-229.675-0.043-264.021-0.384-268.075-2.603z" />
<glyph unicode="&#xe923;" glyph-name="list-checks" d="M290.176 709.973l-57.259-57.173-23.893 24.021c-13.099 13.184-25.941 25.088-28.459 26.453-15.829 8.405-35.029-6.443-30.336-23.467 1.195-4.181 11.136-15.189 37.035-40.917 19.499-19.371 37.248-35.755 39.424-36.395 2.219-0.683 6.827-0.725 10.24-0.085 5.419 0.981 15.36 10.197 72.405 67.115 45.739 45.653 66.688 67.712 67.968 71.552 2.432 7.424-0.427 16.043-7.211 21.76-4.011 3.371-6.997 4.309-13.909 4.309h-8.747l-57.259-57.173zM510.848 702.379c-6.869-4.181-9.259-8.661-9.387-17.408-0.128-8.277 4.096-14.72 12.373-18.944 5.461-2.773 17.237-2.987 173.397-2.987 114.56 0 169.088 0.555 172.373 1.835 16.768 6.357 20.096 27.349 5.845 36.949l-5.803 3.883h-171.691c-166.997 0-171.819-0.085-177.109-3.328zM347.264 530.731c-2.816-1.408-29.653-27.051-59.563-57.003l-54.443-54.485-24.917 23.979c-13.696 13.184-27.435 25.045-30.592 26.411-15.061 6.485-32.085-9.301-27.435-25.472 1.067-3.797 11.819-15.787 34.432-38.485 18.048-18.133 34.944-34.091 37.461-35.456 3.433-1.509 7.432-2.4 11.636-2.432h0.012c6.699 0 8.149 1.109 35.499 27.136 23.57 22.728 45.687 44.561 67.547 66.647l0.335 0.339c40.619 41.045 43.008 44.288 40.405 54.528-1.421 6.374-5.68 11.532-11.351 14.156l-0.126 0.052c-7.083 3.328-12.245 3.371-18.901 0.085zM513.835 468.907c-11.733-5.973-15.616-17.664-9.643-29.184 5.717-11.093-4.608-10.496 184.107-10.496h171.349l5.803 3.883c14.251 9.6 10.923 30.592-5.845 36.949-3.285 1.28-57.813 1.835-172.373 1.835-156.16 0-167.936-0.213-173.397-2.987zM346.453 290.816c-3.285-1.92-30.336-27.861-60.16-57.557l-54.187-54.016-25.173 25.131c-16.981 16.939-27.008 25.685-30.763 26.752-15.36 4.437-30.165-10.411-25.856-25.984 2.176-7.808 70.272-75.435 77.312-76.715 12.245-2.219 14.080-0.768 82.603 67.541 50.304 50.176 65.664 66.475 66.944 70.997 0.601 1.839 0.948 3.955 0.948 6.152 0 8.212-4.844 15.293-11.83 18.542l-0.126 0.053c-7.637 3.584-12.544 3.371-19.712-0.896zM515.968 231.083c-6.272-1.835-14.123-10.411-14.379-15.744-0.64-11.989 1.536-17.024 9.259-21.717 5.291-3.243 10.112-3.328 177.109-3.328h171.691l5.803 3.883c14.805 9.984 10.539 32.043-7.125 37.12-7.552 2.176-334.848 1.963-342.357-0.213z" />
<glyph unicode="&#xe924;" glyph-name="list-numbers" d="M181.077 754.475c-19.157-9.685-36.224-19.456-37.931-21.675-10.283-13.355-0.213-33.877 16.597-33.92 2.859 0 13.099 3.84 22.699 8.533s18.176 8.533 19.072 8.533c0.939 0 1.579-37.76 1.579-96.853 0-94.123 0.128-97.024 3.456-102.485 7.381-12.117 22.741-13.013 33.323-1.963l5.035 5.248 0.469 117.76c0.512 129.323 0.768 125.483-9.728 131.712-10.155 6.016-17.024 4.139-54.571-14.891zM401.835 718.763c-6.229-6.229-8.533-12.501-6.912-18.901 2.662-7.624 8.508-13.54 15.902-16.24l0.183-0.059c8.661-2.389 449.323-2.389 457.984 0 7.577 2.759 13.423 8.675 16.029 16.114l0.056 0.185c1.621 6.4-0.683 12.672-6.912 18.901l-5.717 5.717h-464.896l-5.717-5.717zM401.835 462.763c-6.229-6.229-8.533-12.501-6.912-18.901 2.662-7.624 8.508-13.54 15.902-16.24l0.183-0.059c8.661-2.389 449.323-2.389 457.984 0 7.577 2.759 13.423 8.675 16.029 16.114l0.056 0.185c1.621 6.4-0.683 12.672-6.912 18.901l-5.717 5.717h-464.896l-5.717-5.717zM199.68 403.584c-28.715-6.016-58.539-36.267-55.808-56.576 2.816-21.163 30.208-24.747 40.235-5.333 4.193 8.187 10.915 14.578 19.121 18.247l0.25 0.1c23.851 9.984 50.517-11.648 46.592-37.803-1.067-7.168-23.68-38.827-100.779-141.184-8.747-11.563-10.197-14.549-10.197-20.779 0-8.021 4.437-15.488 11.264-18.987 3.029-1.579 20.48-2.133 66.987-2.133l62.891-0.043 5.717 5.717c2.932 2.856 5.264 6.311 6.8 10.17l0.070 0.198c0.22 1.189 0.346 2.557 0.346 3.954 0 7.21-3.349 13.639-8.577 17.813l-0.046 0.035c-5.291 3.755-7.040 3.968-43.392 4.48l-37.931 0.512 38.016 50.688c20.907 27.861 40.064 54.101 42.539 58.368 5.847 10.621 9.287 23.278 9.287 36.739 0 33.088-20.786 61.322-50.013 72.354l-0.532 0.176c-10.539 4.011-31.659 5.632-42.837 3.285zM401.835 206.763c-6.229-6.229-8.533-12.501-6.912-18.901 2.662-7.624 8.508-13.54 15.902-16.24l0.183-0.059c8.661-2.389 449.323-2.389 457.984 0 7.577 2.759 13.423 8.675 16.029 16.114l0.056 0.185c1.621 6.4-0.683 12.672-6.912 18.901l-5.717 5.717h-464.896l-5.717-5.717z" />
<glyph unicode="&#xe925;" glyph-name="loader" d="M498.517 805.419c-3.121-2.844-5.514-6.434-6.902-10.489l-0.053-0.177c-0.981-3.584-1.749-26.709-1.749-54.059s0.768-50.475 1.749-54.059c2.048-7.253 9.515-14.251 16.981-15.915 6.485-1.408 16.341 3.2 21.248 9.941 3.371 4.565 3.584 7.467 4.096 53.76 0.64 58.325 0.213 62.165-7.381 69.76-4.864 4.864-6.784 5.632-14.208 5.632-6.699 0-9.685-0.939-13.781-4.395zM257.323 709.845c-6.144-3.328-9.856-10.752-9.856-19.755 0-7.211 0.341-7.595 41.387-48.768 29.824-29.909 42.923-41.941 46.933-43.051 1.581-0.42 3.397-0.661 5.269-0.661 11.782 0 21.333 9.551 21.333 21.333 0 1.872-0.241 3.687-0.694 5.417l0.033-0.149c-1.109 4.011-12.971 16.981-43.051 46.933l-41.515 41.387-7.595-0.085c-4.435-0.017-8.642-0.973-12.439-2.681l0.194 0.078zM705.323 671.147c-30.080-29.952-41.941-42.923-43.051-46.933-0.42-1.581-0.661-3.397-0.661-5.269 0-11.782 9.551-21.333 21.333-21.333 1.872 0 3.687 0.241 5.417 0.694l-0.149-0.033c4.011 1.109 17.109 13.141 46.933 43.051 41.045 41.173 41.387 41.557 41.387 48.768 0 14.208-8.235 22.443-22.443 22.443-7.211 0-7.595-0.341-48.768-41.387zM157.184 464.085c-14.464-12.16-7.168-34.56 12.203-37.419 4.011-0.597 29.269-0.853 56.192-0.555 46.293 0.512 49.195 0.725 53.76 4.096 3.277 2.723 5.967 6.026 7.937 9.766l0.084 0.175c2.731 5.504 2.901 7.467 1.237 13.013-1.541 4.318-3.997 7.983-7.151 10.907l-0.017 0.016-5.205 4.395h-113.835l-5.205-4.395zM742.571 464.085c-3.171-2.94-5.627-6.605-7.109-10.734l-0.059-0.189c-1.664-5.547-1.493-7.509 1.237-13.013 2.055-3.915 4.744-7.218 7.969-9.899l0.052-0.042c4.565-3.371 7.467-3.584 53.76-4.096 26.923-0.299 52.181-0.043 56.192 0.555 19.371 2.859 26.667 25.259 12.203 37.419l-5.205 4.395h-113.835l-5.205-4.395zM289.749 255.531c-42.069-42.069-42.283-42.325-42.283-49.579 0-14.251 8.192-22.485 22.443-22.485 7.211 0 7.595 0.341 48.768 41.387 43.989 43.819 46.123 46.763 42.965 58.325-2.56 9.216-10.283 14.635-20.821 14.635h-8.789l-42.283-42.283zM669.184 293.419c-4.658-3.924-7.596-9.76-7.596-16.282 0-1.901 0.25-3.744 0.718-5.498l-0.034 0.148c1.109-4.011 13.141-17.109 43.051-46.933 41.173-41.045 41.557-41.387 48.768-41.387 14.251 0 22.443 8.235 22.443 22.485 0 7.253-0.213 7.509-42.283 49.579l-42.283 42.283h-8.789c-6.955 0-9.856-0.939-13.995-4.395zM505.728 224.213c-7.296-2.048-13.781-10.197-15.061-18.987-0.597-4.011-0.853-29.184-0.555-55.979 0.512-43.093 0.896-49.237 3.584-53.291 3.809-6.236 10.578-10.335 18.304-10.335s14.495 4.099 18.251 10.242l0.053 0.094c2.731 4.139 3.029 9.899 3.029 59.349s-0.299 55.211-3.029 59.349c-3.869 6.289-10.714 10.42-18.523 10.42-2.157 0-4.24-0.315-6.206-0.902l0.153 0.039z" />
<glyph unicode="&#xe926;" glyph-name="magnifying-glass" d="M414.72 849.707c-61.483-8.277-123.947-35.243-174.805-75.349-10.835-9.083-20.612-18.117-29.941-27.593l-0.054-0.055c-66.944-67.584-102.869-155.349-102.784-250.923 0.043-33.237 2.816-55.936 10.581-87.253 35.2-141.44 155.221-247.808 300.928-266.795 95.403-12.459 196.651 16.213 269.781 76.459 6.443 5.291 12.203 9.643 12.8 9.643s42.155-41.088 92.373-91.349c67.84-67.84 92.715-91.733 96.853-92.843 1.609-0.437 3.457-0.688 5.364-0.688 11.735 0 21.248 9.513 21.248 21.248 0 1.882-0.245 3.707-0.704 5.444l0.033-0.148c-1.195 4.181-24.704 28.715-92.885 96.896-50.261 50.219-91.349 91.776-91.349 92.373s4.352 6.357 9.643 12.8c60.245 73.131 88.917 174.379 76.459 269.781-15.932 121.786-91.419 222.964-195.803 274.483l-2.085 0.93c-31.961 16.339-69.13 28.051-108.393 33.062l-1.687 0.176c-22.656 3.029-71.979 2.901-95.573-0.299zM508.373 807.253c153.475-22.552 269.963-153.318 269.963-311.29 0-108.575-55.027-204.298-138.715-260.801l-1.115-0.709c-33.267-22.242-72.33-38.886-114.32-47.509l-2.118-0.363c-16.981-3.456-24.405-3.925-58.709-3.925-36.053 0.043-41.003 0.427-60.629 4.651-133.76 28.629-231.381 132.395-250.155 265.813-3.84 27.307-2.56 77.056 2.645 103.168 9.984 49.835 33.749 100.395 65.024 138.325 10.923 13.227 35.371 37.461 48.555 48.128 41.856 33.835 105.771 60.245 159.573 65.877 16.341 1.749 63.872 0.896 80-1.365z" />
<glyph unicode="&#xe927;" glyph-name="magnifying-glass-minus" d="M414.72 849.707c-61.483-8.277-123.947-35.243-174.805-75.349-10.837-9.088-20.614-18.108-29.952-27.562l-0.043-0.044c-63.487-63.51-102.753-151.235-102.753-248.132 0-0.996 0.004-1.992 0.012-2.986l-0.001 0.153c0.043-33.28 2.816-56.149 10.539-87.253 28.843-115.883 117.205-211.883 230.443-250.368 116.565-39.595 247.253-16.555 340.267 60.032 6.443 5.291 12.203 9.643 12.8 9.643s42.155-41.088 92.373-91.349c67.84-67.84 92.715-91.733 96.853-92.843 1.609-0.437 3.457-0.688 5.364-0.688 11.735 0 21.248 9.513 21.248 21.248 0 1.882-0.245 3.707-0.704 5.444l0.033-0.148c-1.195 4.181-24.704 28.715-92.885 96.896-50.261 50.219-91.349 91.776-91.349 92.373s4.352 6.357 9.643 12.8c60.245 73.131 88.917 174.379 76.459 269.781-21.581 162.67-149.895 289.732-311.336 309.208l-1.709 0.168c-20.096 2.432-68.992 1.877-90.496-1.024zM508.373 807.253c37.006-5.205 70.435-16.327 100.8-32.455l-1.643 0.796c102.191-53.17 170.78-158.262 170.78-279.373 0-14.415-0.972-28.603-2.853-42.502l0.179 1.62c-17.579-134.912-117.973-241.365-253.568-268.8-17.067-3.413-24.277-3.925-58.709-3.84-35.883 0.043-41.088 0.469-60.629 4.608-133.589 28.459-231.381 132.395-250.155 265.813-3.84 27.307-2.56 77.056 2.645 103.168 10.027 50.005 33.621 100.267 65.024 138.325 10.923 13.227 35.371 37.461 48.555 48.128 41.984 33.92 105.6 60.203 159.573 65.877 16.341 1.749 63.872 0.896 80-1.365zM322.731 511.872c-3.171-2.94-5.627-6.605-7.109-10.734l-0.059-0.189c-1.664-5.547-1.493-7.509 1.237-13.013 2.055-3.915 4.744-7.218 7.969-9.899l0.052-0.042c4.779-3.499 6.101-3.541 138.24-3.541 124.331 0 133.803 0.213 138.923 3.029 6.912 3.755 10.709 10.923 10.709 20.096 0 5.76-1.067 8.149-5.803 12.885l-5.803 5.803h-273.152l-5.205-4.395z" />
<glyph unicode="&#xe928;" glyph-name="magnifying-glass-plus" d="M414.72 849.707c-61.568-8.32-123.861-35.157-174.763-75.307-38.485-30.379-78.123-80.555-98.816-125.013-21.411-44.025-33.928-95.771-33.928-150.441 0-0.81 0.003-1.62 0.008-2.429l-0.001 0.124c0-34.219 2.645-56.491 10.496-88.107 28.843-115.883 117.205-211.883 230.443-250.368 116.565-39.595 247.253-16.555 340.267 60.032 6.443 5.291 12.203 9.643 12.8 9.643s42.155-41.088 92.373-91.349c67.84-67.84 92.715-91.733 96.853-92.843 1.609-0.437 3.457-0.688 5.364-0.688 11.735 0 21.248 9.513 21.248 21.248 0 1.882-0.245 3.707-0.704 5.444l0.033-0.148c-1.195 4.181-24.704 28.715-92.885 96.896-50.261 50.219-91.349 91.776-91.349 92.373s4.352 6.357 9.643 12.8c60.245 73.131 88.917 174.379 76.459 269.781-21.552 162.684-149.881 289.762-311.338 309.208l-1.708 0.168c-20.096 2.432-68.992 1.877-90.496-1.024zM508.373 807.253c153.466-22.56 269.945-153.321 269.945-311.288 0-108.604-55.056-204.348-138.781-260.845l-1.116-0.71c-33.207-22.134-72.176-38.727-114.049-47.376l-2.132-0.368c-17.408-3.584-24.064-4.053-58.88-3.968-35.883 0.043-41.088 0.469-60.629 4.608-133.589 28.459-231.381 132.395-250.155 265.813-3.84 27.307-2.56 77.056 2.645 103.168 13.138 65.318 45.089 121.689 89.885 164.812l0.099 0.095c18.816 18.304 28.16 25.856 47.104 38.187 38.543 25.075 84.315 42.535 133.532 49.097l1.679 0.183c13.867 1.749 64.725 0.853 80.853-1.408zM451.456 640.555c-9.003-7.040-9.429-10.24-9.429-69.632v-54.656h-114.091l-5.205-4.395c-3.171-2.94-5.627-6.605-7.109-10.734l-0.059-0.189c-1.664-5.547-1.493-7.509 1.237-13.013 2.055-3.915 4.744-7.218 7.969-9.899l0.052-0.042c4.608-3.371 7.381-3.584 61.013-4.053l56.192-0.555v-53.717c0-58.325 0.469-61.611 9.429-68.651 9.173-7.253 25.259-3.627 31.061 6.997 2.688 4.864 3.072 11.733 3.541 60.459l0.512 54.912 54.955 0.555c48.683 0.469 55.595 0.853 60.459 3.541 6.912 3.755 10.709 10.923 10.709 20.096 0 5.76-1.067 8.149-5.803 12.885l-5.803 5.803h-114.688l-0.043 52.48c0 28.843-0.768 55.552-1.621 59.307-1.729 9.291-9.773 16.233-19.438 16.233-0.306 0-0.611-0.007-0.914-0.021l0.043 0.002c-5.931 0-9.643-1.067-12.971-3.712z" />
<glyph unicode="&#xe929;" glyph-name="menu" d="M113.323 718.677c-5.12-5.12-5.803-6.869-5.803-14.677s0.683-9.557 5.803-14.677l5.803-5.803h785.749l5.803 5.803c5.12 5.12 5.803 6.869 5.803 14.677s-0.683 9.557-5.803 14.677l-5.803 5.803h-785.749l-5.803-5.803zM114.517 464.085c-4.629-3.893-7.55-9.687-7.55-16.163 0-9.76 6.633-17.97 15.637-20.369l0.147-0.033c8.405-2.304 770.091-2.304 778.496 0 16.64 4.608 21.333 25.557 8.235 36.565l-5.205 4.395h-784.555l-5.205-4.395zM113.323 206.677c-3.901-3.688-6.33-8.899-6.33-14.677s2.428-10.989 6.32-14.668l0.010-0.009 5.803-5.803h785.749l5.803 5.803c5.12 5.12 5.803 6.869 5.803 14.677s-0.683 9.557-5.803 14.677l-5.803 5.803h-785.749l-5.803-5.803z" />
<glyph unicode="&#xe92a;" glyph-name="minus" d="M115.883 474.837c-14.251-9.6-10.923-30.592 5.845-36.949 6.741-2.56 773.803-2.56 780.544 0 16.768 6.357 20.096 27.349 5.845 36.949l-5.803 3.883h-780.629l-5.803-3.883z" />
<glyph unicode="&#xe92b;" glyph-name="note" d="M181.461 820.011c-16.391-3.235-29.761-13.907-36.645-28.278l-0.133-0.309-5.589-11.392v-663.979l4.437-9.387c6.4-13.611 12.245-19.669 25.088-25.984l11.349-5.589h459.179l8.619 3.883c7.083 3.243 28.117 23.467 119.68 115.2 98.176 98.389 111.445 112.299 114.261 119.851 3.072 8.192 3.2 18.005 3.2 237.269v228.736l-5.589 11.392c-6.101 12.373-13.525 19.413-27.136 25.685l-8.235 3.797-327.68 0.256c-180.224 0.128-330.88-0.384-334.805-1.152zM838.912 774.912l4.181-4.224-0.427-214.656-0.427-214.699-212.224-1.707-4.395-4.139c-2.721-2.808-4.816-6.239-6.050-10.056l-0.051-0.184c-1.024-3.712-1.707-45.568-1.707-107.221v-101.12h-428.544l-8.363 8.363v645.461l8.363 8.363h645.461l4.181-4.181zM370.517 592.085c-4.629-3.893-7.55-9.687-7.55-16.163 0-9.76 6.633-17.97 15.637-20.369l0.147-0.033c8.192-2.261 258.304-2.304 266.24-0.043 16.939 4.864 21.717 25.472 8.491 36.608l-5.205 4.395h-272.555l-5.205-4.395zM370.517 464.085c-4.629-3.893-7.55-9.687-7.55-16.163 0-9.76 6.633-17.97 15.637-20.369l0.147-0.033c8.192-2.261 258.304-2.304 266.24-0.043 16.939 4.864 21.717 25.472 8.491 36.608l-5.205 4.395h-272.555l-5.205-4.395zM370.517 336.085c-4.629-3.893-7.55-9.687-7.55-16.163 0-9.76 6.633-17.97 15.637-20.369l0.147-0.033c7.979-2.219 130.517-2.261 138.24-0.043 16.939 4.864 21.717 25.472 8.491 36.608l-5.205 4.395h-144.555l-5.205-4.395zM810.667 297.387c0-0.256-33.408-33.835-74.24-74.667l-74.24-74.24v149.333h74.24c40.832 0 74.24-0.213 74.24-0.427z" />
<glyph unicode="&#xe92c;" glyph-name="notification" d="M455.083 892.544c-66.688-8.064-116.523-31.019-159.189-73.301-21.504-21.291-34.944-38.784-52.139-67.84-30.933-52.267-53.419-111.403-86.443-227.456-29.525-103.595-46.123-174.165-52.48-222.72-3.883-29.867-2.645-69.973 2.603-84.821 7.595-21.461 23.893-33.195 58.496-42.24 29.696-7.765 59.264-10.368 139.008-12.16l51.499-1.195 4.651-18.987c17.067-69.504 41.899-107.307 83.499-127.189 19.466-9.3 42.308-14.731 66.42-14.731 6.213 0 12.342 0.361 18.367 1.062l-0.733-0.069c54.528 5.632 92.885 31.787 117.291 80.043 6.357 12.587 16.853 45.312 20.608 64.299l3.115 15.573 50.432 1.152c78.677 1.835 108.416 4.48 137.984 12.203 34.603 9.045 50.901 20.779 58.496 42.24 5.248 14.848 6.485 54.955 2.603 84.821-10.539 80.896-63.659 277.504-99.072 366.891-27.605 69.632-54.827 114.304-91.989 151.125-43.179 42.795-92.672 65.365-160.64 73.301-27.051 3.157-86.144 3.157-112.384 0zM578.56 848.213c108.245-19.712 167.040-86.016 221.056-249.216 21.803-65.835 59.52-206.165 69.76-259.456 9.131-47.403 12.075-88.32 7.595-106.027-1.792-7.083-2.773-8.149-10.667-11.776-33.877-15.488-79.232-17.749-354.304-17.749s-320.427 2.261-354.304 17.749c-7.893 3.627-8.875 4.693-10.667 11.776-4.48 17.707-1.536 58.624 7.595 106.027 10.24 53.291 47.957 193.621 69.76 259.456 56.533 170.709 119.339 237.099 238.123 251.648 21.205 2.603 97.152 1.024 116.053-2.432zM625.323 156.587c-7.68-33.835-14.635-53.077-24.789-68.821-19.499-30.123-47.744-44.587-87.68-44.757-56.789-0.213-86.571 25.813-105.771 92.587-1.952 5.881-4.028 13.682-5.724 21.624l-0.292 1.629c0 2.091 16.469 2.432 112.683 2.432h112.683l-1.109-4.693z" />
<glyph unicode="&#xe92d;" glyph-name="paperclip" d="M686.933 849.664c-17.791-4.332-33.428-10.527-47.915-18.547l0.982 0.499c-25.387-14.165-37.803-26.112-234.411-225.579-107.392-108.971-198.784-202.283-203.093-207.36-49.451-58.155-65.408-134.485-42.795-204.416 17.408-53.845 60.075-103.509 110.805-128.939 51.968-26.112 112.512-29.568 169.301-9.685 31.531 11.051 60.416 27.648 90.155 51.925 18.219 14.848 317.952 318.165 322.261 326.144 4.309 7.936 2.56 16.597-4.821 23.979-4.736 4.736-6.912 5.675-13.099 5.632-0.034 0-0.075 0-0.115 0-3.956 0-7.73-0.784-11.173-2.205l0.195 0.071c-2.048-1.152-70.784-70.101-152.747-153.259-82.005-83.115-153.515-155.136-158.933-160-68.267-61.44-148.693-78.635-217.301-46.507-46.884 22.636-81.926 63.547-96.24 113.24l-0.315 1.277c-3.456 12.587-3.968 18.261-3.883 43.477 0.128 26.624 0.512 30.293 4.779 44.245 5.76 18.773 18.645 43.989 30.507 59.861 8.107 10.795 132.267 137.643 333.269 340.48 76.117 76.8 85.333 84.864 109.269 95.701 17.835 8.107 31.36 10.581 52.864 9.643 21.973-0.939 35.84-4.821 51.797-14.464 23.125-13.995 39.893-33.707 49.109-57.856 5.419-14.080 7.339-40.192 4.139-55.68-2.645-12.757-11.989-31.275-22.187-43.989-6.784-8.448-277.803-284.544-368.64-375.509-29.44-29.483-41.259-37.291-58.752-38.741-24.789-2.048-46.251 21.76-43.136 47.872 2.048 17.536 3.115 18.731 111.232 128.384 232.192 235.477 218.624 221.397 219.904 228.224 0.243 1.196 0.382 2.57 0.382 3.977 0 11.546-9.36 20.907-20.907 20.907-3.744 0-7.259-0.984-10.299-2.708l0.104 0.054c-7.211-4.053-320-321.579-327.637-332.587-13.696-19.712-19.243-48.512-13.653-70.613 4.181-16.384 10.453-28.032 21.632-39.979 31.445-33.579 79.061-35.115 120.363-3.84 12.8 9.685 395.392 397.525 406.101 411.691 10.453 13.781 22.229 37.973 26.539 54.528 7.296 27.904 4.267 61.013-8.32 90.965-18.432 43.861-63.147 79.787-111.659 89.771-16.427 3.413-47.531 3.328-63.659-0.085z" />
<glyph unicode="&#xe92e;" glyph-name="pause-circle" d="M472.747 851.413c-54.784-6.528-98.517-19.285-142.507-41.515-89.744-45.874-158.854-121.397-195.388-213.397l-0.964-2.752c-17.052-43.255-26.936-93.354-26.936-145.762 0-36.698 4.847-72.264 13.935-106.093l-0.652 2.852c19.115-71.68 52.608-129.579 105.771-182.741 35.243-35.2 65.792-57.259 107.648-77.568 59.221-28.757 113.237-41.259 178.347-41.259 91.392 0 173.141 27.861 248.32 84.523 17.579 13.269 58.709 54.4 71.979 71.979 44.032 58.411 70.443 120.789 80.896 191.147 4.949 33.195 4.949 81.152 0 114.347-19.805 134.047-102.768 245.202-217.142 303.661l-2.293 1.064c-33.091 17.194-71.487 30.302-111.978 37.294l-2.369 0.338c-16.256 2.901-28.757 3.755-60.587 4.139-5.432 0.123-11.833 0.193-18.251 0.193-9.786 0-19.535-0.163-29.242-0.486l1.413 0.037zM560.043 807.083c161.408-20.864 290.005-149.76 311.125-311.808 1.61-14.183 2.528-30.621 2.528-47.275s-0.918-33.092-2.707-49.268l0.179 1.994c-24.065-178.792-175.67-315.198-359.135-315.198-31.505 0-62.071 4.022-91.211 11.582l2.517-0.554c-115.884 30.005-207.703 112.889-249.481 220.713l-0.844 2.476c-25.429 67.029-29.995 145.749-12.587 216.149 35.328 142.72 156.8 251.819 302.080 271.189 25.003 3.328 71.808 3.328 97.536 0zM403.84 592.896c-10.027-7.851-9.6-1.621-9.6-145.237 0-127.744 0.128-132.096 3.328-137.387 4.523-7.381 10.88-11.221 18.603-11.221 8.277 0 13.269 2.731 17.408 9.557 3.2 5.248 3.328 9.728 3.328 139.051 0 144.853 0.341 139.733-9.259 146.005-6.144 4.011-18.219 3.627-23.808-0.768zM595.371 592.64c-2.511-2.137-4.637-4.63-6.324-7.417l-0.076-0.135c-1.323-2.603-1.877-44.032-1.877-137.387 0-129.365 0.128-133.845 3.328-139.093 4.139-6.827 9.131-9.557 17.408-9.557 7.723 0 14.080 3.84 18.603 11.221 3.2 5.291 3.328 9.643 3.328 137.387 0 143.616 0.427 137.387-9.6 145.237-6.357 5.035-18.688 4.907-24.789-0.256z" />
<glyph unicode="&#xe92f;" glyph-name="pencil-simple" d="M653.099 849.835c-5.539-2.368-10.312-5.156-14.684-8.448l0.177 0.128c-4.395-3.243-124.032-122.112-265.899-264.149-246.656-246.869-258.133-258.688-261.973-268.459l-4.053-10.24v-104.96c0-122.667-0.768-116.437 16.896-134.101 17.749-17.707 10.581-16.768 133.675-17.408 73.941-0.384 108.459 0.043 113.493 1.365 6.613 1.707 32.896 27.52 272.896 267.605 257.749 257.792 265.771 265.984 269.44 275.925 2.509 6.1 3.965 13.181 3.965 20.603 0 8.043-1.711 15.687-4.788 22.587l0.141-0.353c-4.181 9.301-14.549 20.224-106.496 112.085-114.517 114.389-109.867 110.507-133.461 110.336-0.026 0-0.056 0-0.086 0-6.842 0-13.47-0.919-19.766-2.64l0.525 0.122zM776.107 712.107c91.733-91.776 97.707-98.091 97.707-103.68 0-5.504-3.627-9.557-49.92-55.893l-49.92-49.92-207.36 207.36 49.92 49.92c46.379 46.379 50.304 49.92 55.851 49.92 5.632 0 11.819-5.845 103.723-97.707zM640 575.147l103.253-103.253-387.413-387.456-99.243 0.427c-94.848 0.469-99.371 0.597-102.827 3.712-3.584 3.243-3.584 3.755-3.584 104.107v100.864l192.427 192.427c63.79 64.060 126.772 126.772 190.021 189.215l3.259 3.212c0.469 0 47.317-46.464 104.107-103.253z" />
<glyph unicode="&#xe930;" glyph-name="plus" d="M498.517 848.085c-3.121-2.844-5.514-6.434-6.902-10.489l-0.053-0.177c-1.109-4.096-1.749-67.541-1.749-182.485v-176.213h-368.128l-5.803-3.883c-14.251-9.6-10.923-30.592 5.845-36.949 3.285-1.28 61.909-1.835 186.411-1.835h181.632l0.427-189.099c0.427-177.323 0.64-189.355 3.499-193.664 3.809-6.236 10.578-10.335 18.304-10.335s14.495 4.099 18.251 10.242l0.053 0.094c2.859 4.309 3.072 16.341 3.499 193.664l0.427 189.099h181.632c124.501 0 183.125 0.555 186.411 1.835 16.768 6.357 20.096 27.349 5.845 36.949l-5.803 3.883h-368.128v176.213c0 114.944-0.64 178.389-1.749 182.485-2.752 8.924-10.926 15.298-20.589 15.298-5.056 0-9.704-1.745-13.375-4.665l0.044 0.034z" />
<glyph unicode="&#xe931;" glyph-name="question" d="M472.747 851.413c-54.784-6.528-98.517-19.285-142.507-41.515-89.744-45.874-158.854-121.397-195.388-213.397l-0.964-2.752c-17.052-43.255-26.936-93.354-26.936-145.762 0-36.698 4.847-72.264 13.935-106.093l-0.652 2.852c19.115-71.68 52.608-129.579 105.771-182.741 35.243-35.2 65.792-57.259 107.648-77.568 59.221-28.757 113.237-41.259 178.347-41.259 91.392 0 173.141 27.861 248.32 84.523 17.579 13.269 58.709 54.4 71.979 71.979 44.032 58.411 70.443 120.789 80.896 191.147 4.949 33.195 4.949 81.152 0 114.347-19.805 134.047-102.768 245.202-217.142 303.661l-2.293 1.064c-33.091 17.194-71.487 30.302-111.978 37.294l-2.369 0.338c-16.256 2.901-28.757 3.755-60.587 4.139-5.432 0.123-11.833 0.193-18.251 0.193-9.786 0-19.535-0.163-29.242-0.486l1.413 0.037zM560.043 807.083c161.408-20.864 290.005-149.76 311.125-311.808 1.61-14.183 2.528-30.621 2.528-47.275s-0.918-33.092-2.707-49.268l0.179 1.994c-24.065-178.792-175.67-315.198-359.135-315.198-31.505 0-62.071 4.022-91.211 11.582l2.517-0.554c-115.884 30.005-207.703 112.889-249.481 220.713l-0.844 2.476c-25.429 67.029-29.995 145.749-12.587 216.149 35.328 142.72 156.8 251.819 302.080 271.189 25.003 3.328 71.808 3.328 97.536 0zM491.221 659.712c-40.661-7.467-72.917-29.525-94.080-64.384-14.976-24.619-22.869-66.219-14.933-78.72 4.1-6.066 10.953-10.002 18.724-10.002 1.025 0 2.034 0.068 3.023 0.201l-0.116-0.013c7.296 1.365 15.659 9.813 16.64 16.811 0.469 2.987 1.579 11.179 2.517 18.176 6.528 47.915 53.803 82.816 102.229 75.477 43.778-6.939 76.849-44.411 76.849-89.608 0-14.571-3.437-28.339-9.545-40.537l0.237 0.524c-14.123-28.544-46.507-49.877-75.904-49.877-8.96 0-17.877-4.267-22.656-10.795-3.157-4.267-3.541-7.253-3.541-26.453 0-24.747 1.877-30.379 11.691-35.072 7.424-3.499 11.861-3.499 19.285 0 7.168 3.413 10.837 10.069 12.075 22.016 0.896 8.832 1.067 9.088 7.083 10.197 11.648 2.176 32.853 11.435 45.312 19.755 49.28 32.981 70.997 95.915 52.309 151.68-13.967 42.484-47.653 74.946-89.945 86.941l-0.935 0.227c-14.037 3.968-43.648 5.76-56.32 3.456zM496.768 274.389c-15.019-5.291-27.435-23.253-27.435-39.723 0-22.485 20.181-42.667 42.667-42.667 10.325 0 22.229 5.077 29.909 12.757 32.128 32.128-2.048 84.864-45.141 69.632z" />
<glyph unicode="&#xe932;" glyph-name="reports" d="M485.547 872.875c-43.807-6.402-82.18-26.009-111.85-54.589l0.063 0.061-8.619-8.405-174.848-0.981-9.728-4.779c-12.203-6.016-23.979-18.859-28.117-30.677-2.987-8.533-3.115-24.789-3.115-357.931s0.128-349.397 3.115-357.931c4.139-11.819 15.915-24.661 28.117-30.677l9.728-4.779h643.413l9.728 4.779c12.203 6.016 23.979 18.859 28.117 30.677 2.987 8.533 3.115 24.789 3.115 357.931s-0.128 349.397-3.115 357.931c-4.139 11.819-15.915 24.661-28.117 30.677l-9.728 4.779-174.72 0.981-10.667 10.197c-25.991 24.456-58.634 42.128-94.926 50.019l-1.33 0.242c-15.061 3.243-50.901 4.565-66.517 2.475zM549.675 827.093c29.056-7.467 55.040-22.656 74.069-43.221 23.168-25.003 34.773-52.053 36.309-84.565l0.896-19.2h-297.899l0.896 19.2c0.725 15.147 1.963 22.315 5.973 34.048 17.323 50.859 63.019 88.021 119.125 96.853 14.805 2.347 45.568 0.768 60.629-3.115zM336.213 766.635c0-0.299-2.261-6.741-5.035-14.293-8.448-23.168-10.965-39.211-11.093-70.528-0.085-31.872 1.237-36.651 11.605-41.6 5.333-2.517 22.4-2.773 180.309-2.773s174.976 0.256 180.309 2.773c10.368 4.949 11.691 9.728 11.605 41.6-0.128 31.317-2.645 47.36-11.093 70.528-1.080 2.526-2.79 7.266-4.388 12.058l-0.646 2.236c0 0.256 30.549 0.512 67.883 0.512 58.667 0 68.395-0.341 71.68-2.645l3.797-2.688v-692.48l-3.797-2.688c-3.413-2.389-36.139-2.645-315.349-2.645s-311.936 0.256-315.349 2.645l-3.797 2.688v692.48l3.797 2.688c3.285 2.304 13.013 2.645 71.68 2.645 37.333 0 67.883-0.256 67.883-0.512zM365.568 482.688c-14.549-7.168-14.421-30.037 0.256-37.035 5.291-2.475 19.883-2.773 146.176-2.773s140.885 0.299 146.176 2.773c14.805 7.040 14.805 30.080 0 37.12-5.291 2.517-19.84 2.773-146.432 2.731-126.336-0.043-141.099-0.299-146.176-2.816zM365.568 352.981c-14.549-7.168-14.421-30.037 0.256-37.035 5.291-2.475 19.883-2.773 146.176-2.773s140.885 0.299 146.176 2.773c14.805 7.040 14.805 30.080 0 37.12-5.291 2.517-19.84 2.773-146.432 2.731-126.336-0.043-141.099-0.299-146.176-2.816z" />
<glyph unicode="&#xe933;" glyph-name="setting" d="M292.992 810.112c-37.333-23.339-69.163-44.245-70.784-46.507-2.603-3.712-2.987-11.648-3.755-73.941l-0.853-69.845-68.267-37.931c-50.731-28.203-69.035-39.211-71.253-42.837-2.731-4.437-2.987-11.733-2.987-83.669v-78.805l4.352-5.163c2.773-3.285 28.885-18.731 71.637-42.368l67.243-37.205 0.085-75.989c0.043-70.741 0.256-76.373 3.2-81.92 2.816-5.205 12.587-11.136 79.531-48.384 63.147-35.2 77.44-42.496 82.944-42.496 5.717 0 15.232 5.376 67.115 37.803 10.081 6.882 30.132 19.368 50.373 31.57l11.067 6.19c0.512 0 31.104-16.768 68.011-37.248 36.864-20.523 69.12-37.803 71.723-38.443 0.952-0.176 2.047-0.277 3.166-0.277 2.554 0 4.986 0.526 7.192 1.475l-0.118-0.045c3.115 1.323 35.285 20.907 71.509 43.563 55.68 34.816 66.347 42.112 68.651 47.019 2.432 5.077 2.773 15.403 2.816 81.493l0.085 75.691 67.243 37.205c42.752 23.637 68.864 39.083 71.637 42.368l4.352 5.163v78.805c0 71.936-0.256 79.232-2.987 83.669-2.219 3.627-20.523 14.635-71.253 42.837l-68.267 37.931-0.853 69.845c-0.768 62.293-1.152 70.229-3.755 73.941-1.621 2.261-33.451 23.168-70.784 46.507-59.989 37.461-68.651 42.368-74.837 42.368-5.931 0-17.28-5.717-74.667-37.547-37.205-20.651-68.48-37.547-69.504-37.547s-32.299 16.896-69.504 37.547c-57.387 31.829-68.736 37.547-74.667 37.547-6.187 0-14.848-4.907-74.837-42.368zM437.419 768.853c57.429-31.915 68.608-37.547 74.581-37.547s17.152 5.632 74.581 37.547c37.163 20.651 68.139 37.547 68.864 37.547 0.768 0 25.003-14.805 53.973-32.939l52.608-32.896 1.707-142.677 5.205-4.523c2.816-2.517 34.901-21.035 71.253-41.173l66.048-36.565-0.043-59.861v-59.819l-67.2-37.205c-36.949-20.48-68.992-39.168-71.211-41.515l-4.053-4.309-0.853-78.763-0.853-78.72-52.608-32.896c-28.971-18.133-53.291-32.939-54.144-32.939-0.811 0-31.275 16.597-67.712 36.907-52.565 29.312-67.797 37.077-74.069 37.76-7.851 0.811-8.533 0.427-67.285-36.224-7.301-5.194-27.391-17.734-47.631-30.052l-13.937-7.879c-1.237-0.469-29.483 14.293-62.848 32.811l-60.587 33.621-0.469 78.165-0.469 78.208-4.053 4.267c-2.219 2.389-34.261 21.077-71.211 41.557l-67.2 37.205v59.819l-0.043 59.861 67.84 37.675c42.155 23.424 69.12 39.424 71.253 42.283 3.243 4.352 3.456 7.936 4.267 74.752l0.853 70.229 52.053 32.768c28.629 18.005 52.907 32.853 53.931 32.939 1.067 0.043 32.299-16.768 69.461-37.419zM479.957 593.792c-56.021-12.288-102.016-58.709-113.877-114.987-3.285-15.701-3.285-45.909 0-61.568 6.016-28.501 19.243-52.48 40.96-74.197 29.696-29.696 63.019-43.52 104.96-43.52s75.264 13.824 104.96 43.52 43.52 63.019 43.52 104.96c0 41.941-13.824 75.264-43.52 104.96-21.717 21.717-45.696 34.944-74.197 40.96-15.061 3.157-48.085 3.115-62.805-0.128zM523.947 553.771c18.261-2.389 32.555-7.595 46.848-17.195 28.855-19.141 47.62-51.485 47.62-88.213 0-4.489-0.28-8.913-0.824-13.254l0.053 0.518c-3.544-32.044-21.166-59.36-46.453-75.96l-0.395-0.243c-16.512-11.185-36.874-17.855-58.795-17.855s-42.283 6.671-59.168 18.093l0.373-0.238c-25.682 16.843-43.304 44.159-46.806 75.734l-0.042 0.469c-0.491 3.824-0.772 8.247-0.772 12.737 0 36.727 18.765 69.072 47.23 87.97l0.39 0.243c12.863 8.776 28.251 14.85 44.861 17.051l0.536 0.058 11.691 1.579c0.469 0.085 6.613-0.597 13.653-1.493z" />
<glyph unicode="&#xe934;" glyph-name="share-network" d="M678.955 883.285c-23.836-4.745-44.927-13.967-63.3-26.809l0.538 0.356c-12.715-9.387-33.152-31.787-40.619-44.629-13.037-21.705-20.747-47.896-20.747-75.888 0-17.474 3.005-34.246 8.525-49.828l-0.322 1.044 4.736-13.867-98.517-63.36c-54.187-34.816-99.2-63.317-100.053-63.317s-4.992 3.499-9.173 7.808c-17.024 17.493-47.275 33.664-73.216 39.125-15.701 3.285-45.909 3.285-61.611 0-46.165-9.728-88.235-44.032-106.112-86.528-8.96-21.291-11.861-35.968-11.861-59.392 0-42.155 13.653-74.923 43.733-105.045 30.123-30.080 62.891-43.733 105.045-43.733 39.979 0 72.789 12.928 101.888 40.149 5.888 5.461 11.392 9.685 12.245 9.387 0.896-0.341 45.696-28.928 99.584-63.616l98.005-62.976-4.736-13.824c-5.189-14.488-8.188-31.204-8.188-48.62 0-28.092 7.803-54.36 21.361-76.757l-0.372 0.663c9.216-15.659 31.019-38.315 47.061-48.811 46.549-30.549 109.227-31.744 157.781-2.944 14.037 8.32 36.523 29.312 45.397 42.368 19.925 29.397 28.8 60.629 26.752 94.379-4.352 72.96-59.477 130.901-132.821 139.52-41.771 4.949-85.589-9.685-117.931-39.339l-11.563-10.581-97.664 62.677c-78.447 48.802-110.732 69.888-142.906 91.129l43.877-27.214c-0.768 0.64 0.939 8.064 3.755 16.469 10.24 30.592 10.283 62.805 0.043 93.397-1.672 4.275-3.272 9.524-4.5 14.914l-0.151 0.787c0.256 0.256 44.843 28.971 99.072 63.872l98.603 63.403 11.477-10.539c32.299-29.611 77.056-44.587 117.76-39.467 62.763 7.936 111.445 49.707 128.683 110.379 5.077 17.92 5.589 55.467 0.981 72.235-7.936 28.715-18.731 48.213-37.76 68.096-17.903 19.299-40.818 33.71-66.68 41.174l-1.032 0.255c-14.208 4.096-51.029 6.059-65.067 3.499zM724.608 840.363c51.157-9.429 88.917-58.453 85.419-110.933-2.819-44.405-32.424-81.216-72.719-94.631l-0.753-0.217c-9.737-3.106-20.937-4.896-32.555-4.896s-22.818 1.79-33.339 5.109l0.784-0.213c-43.108 14.094-73.7 53.948-73.7 100.947 0 17.448 4.216 33.911 11.685 48.426l-0.278-0.595c21.248 43.008 67.499 65.877 115.456 57.003zM294.4 547.243c31.877-12.753 55.815-39.427 64.556-72.296l0.17-0.75c3.456-13.483 3.456-38.912 0-52.395-11.991-46.38-53.462-80.086-102.804-80.086-0.113 0-0.226 0-0.338 0.001h0.017c-0.243-0.002-0.531-0.003-0.819-0.003-57.968 0-104.96 46.992-104.96 104.96 0 0.466 0.003 0.932 0.009 1.396l-0.001-0.071c0 41.771 22.101 77.397 59.136 95.488 17.024 8.277 27.648 10.325 50.901 9.728 18.304-0.512 21.931-1.109 34.133-5.973zM716.288 265.472c50.829-5.924 90.375-47.128 93.68-98.205l0.016-0.312c4.779-70.997-61.269-126.848-130.731-110.549-30.701 7.726-55.624 27.957-69.48 54.826l-0.28 0.598c-9.344 19.029-12.8 35.541-11.477 55.125 3.669 54.357 45.696 95.659 101.717 99.925 1.408 0.085 8.875-0.555 16.555-1.408z" />
<glyph unicode="&#xe935;" glyph-name="sign-out" d="M181.461 819.968c-16.341-3.2-29.227-13.227-36.779-28.544l-5.589-11.392v-663.979l4.437-9.387c6.4-13.611 12.245-19.669 25.088-25.984l11.349-5.589 117.803-0.512c77.824-0.341 119.851 0.085 123.861 1.237 7.904 2.086 13.802 8.732 14.754 16.889l0.009 0.093c1.237 9.088-1.92 16.384-8.832 20.693-5.419 3.328-8.363 3.413-121.941 3.413h-116.352l-8.363 8.363v645.461l8.363 8.363h116.224c128.043 0 123.349-0.384 129.024 10.539 3.712 7.211 2.347 19.029-2.816 24.576-2.767 2.597-6.123 4.603-9.842 5.794l-0.184 0.051c-7.424 2.048-229.76 2.005-240.213-0.085zM686.123 634.283c-6.828-3.761-11.378-10.911-11.378-19.123 0-1.035 0.072-2.054 0.212-3.050l-0.013 0.115c0.981-5.547 9.771-15.019 68.437-73.813 36.992-37.077 67.285-68.011 67.285-68.693s-90.709-1.237-201.557-1.237h-201.557l-5.717-5.717c-6.229-6.229-8.533-12.501-6.912-18.901 2.662-7.624 8.508-13.54 15.902-16.24l0.183-0.059c4.096-1.109 74.197-1.749 203.349-1.749h197.12l-67.712-67.84c-59.008-59.136-67.84-68.651-68.821-74.197-2.475-13.568 9.856-26.283 23.808-24.576 6.229 0.768 12.928 7.040 94.464 88.405 52.565 52.48 88.747 89.899 90.24 93.312 5.163 11.819 6.443 10.283-87.040 104.064-48 48.171-89.387 88.661-91.904 90.027-6.187 3.243-11.349 3.072-18.389-0.725z" />
<glyph unicode="&#xe936;" glyph-name="squares-four" d="M181.419 786.005c-11.264-6.869-10.752 0.213-10.752-146.347 0-128.683 0.128-132.949 3.328-138.24 6.869-11.264-0.171-10.752 146.005-10.752s139.136-0.512 146.005 10.752c3.2 5.291 3.328 9.557 3.328 138.24 0 146.56 0.512 139.477-10.752 146.347-5.291 3.2-9.557 3.328-138.581 3.328s-133.291-0.128-138.581-3.328zM565.419 786.005c-11.264-6.869-10.752 0.213-10.752-146.347 0-128.683 0.128-132.949 3.328-138.24 6.869-11.264-0.171-10.752 146.005-10.752s139.136-0.512 146.005 10.752c3.2 5.291 3.328 9.557 3.328 138.24 0 146.56 0.512 139.477-10.752 146.347-5.291 3.2-9.557 3.328-138.581 3.328s-133.291-0.128-138.581-3.328zM426.667 640v-106.667h-213.333v213.333h213.333v-106.667zM810.667 640v-106.667h-213.333v213.333h213.333v-106.667zM181.419 402.005c-11.264-6.869-10.752 0.213-10.752-146.347 0-128.683 0.128-132.949 3.328-138.24 6.869-11.264-0.171-10.752 146.005-10.752s139.136-0.512 146.005 10.752c3.2 5.291 3.328 9.557 3.328 138.24 0 146.56 0.512 139.477-10.752 146.347-5.291 3.2-9.557 3.328-138.581 3.328s-133.291-0.128-138.581-3.328zM565.419 402.005c-11.264-6.869-10.752 0.213-10.752-146.347 0-128.683 0.128-132.949 3.328-138.24 6.869-11.264-0.171-10.752 146.005-10.752s139.136-0.512 146.005 10.752c3.2 5.291 3.328 9.557 3.328 138.24 0 146.56 0.512 139.477-10.752 146.347-5.291 3.2-9.557 3.328-138.581 3.328s-133.291-0.128-138.581-3.328zM426.667 256v-106.667h-213.333v213.333h213.333v-106.667zM810.667 256v-106.667h-213.333v213.333h213.333v-106.667z" />
<glyph unicode="&#xe937;" glyph-name="stack" d="M311.467 748.245c-106.069-57.173-194.944-105.515-197.461-107.392-4.427-3.727-7.221-9.272-7.221-15.47 0-2.551 0.473-4.992 1.337-7.239l-0.047 0.138c1.47-3.317 3.407-6.156 5.767-8.583l-0.007 0.007c1.835-1.664 90.453-50.005 196.949-107.435 174.123-93.909 194.304-104.405 201.216-104.405s27.093 10.496 201.216 104.405c106.496 57.429 195.115 105.771 196.949 107.435 4.307 3.818 7.008 9.364 7.008 15.541 0 1.831-0.237 3.606-0.683 5.297l0.032-0.145c-0.94 3.614-2.625 6.751-4.889 9.374l0.025-0.030c-1.749 1.579-90.837 50.048-198.059 107.776-172.373 92.843-195.712 104.96-202.069 104.832-6.187-0.085-34.731-14.933-200.064-104.107zM679.424 717.483c90.837-48.896 166.4-89.771 167.893-90.88 2.304-1.707-25.557-17.237-166.272-93.013l-169.045-91.051-168.96 91.008c-92.928 50.005-168.363 91.52-167.637 92.245 2.688 2.688 334.123 180.565 336.469 180.565 1.323 0.043 76.715-39.979 167.552-88.875zM114.517 464.085c-9.429-7.893-10.112-22.955-1.451-30.976 2.091-1.963 91.349-50.645 198.272-108.203 155.392-83.627 195.712-104.661 200.661-104.661s45.269 21.035 200.661 104.661c106.923 57.557 196.181 106.24 198.272 108.203 8.661 8.021 7.979 23.083-1.451 30.976-11.605 9.771-1.109 14.677-208.853-97.195l-188.629-101.589-188.629 101.589c-207.744 111.872-197.248 106.965-208.853 97.195zM122.24 290.901c-15.232-4.437-20.565-24.917-9.173-35.2 2.091-1.92 91.307-50.56 198.229-108.075 157.355-84.651 195.584-104.576 200.704-104.576 5.163 0 43.52 20.053 202.283 105.643 133.589 71.979 197.035 107.051 199.339 110.165 6.571 8.96 3.413 23.211-6.613 29.781-10.453 6.869-4.992 9.472-206.165-98.859l-188.843-101.717-188.16 101.248c-103.509 55.68-190.080 101.632-192.427 102.101-1.008 0.16-2.171 0.251-3.355 0.251-2.069 0-4.073-0.278-5.976-0.8l0.158 0.037z" />
<glyph unicode="&#xe938;" glyph-name="staff" d="M295.253 851.413c-15.688-3.217-29.559-7.931-42.586-14.13l1.114 0.477c-78.251-39.168-106.155-130.56-62.379-204.373 7.637-12.885 26.539-33.707 37.376-41.216l6.955-4.821-16.768-8.661c-23.255-11.808-43.181-26.381-60.412-43.644l-0.004-0.004c-23.083-22.741-46.379-55.381-50.987-71.552-3.669-12.8 4.907-24.149 19.157-25.344 11.264-0.896 15.701 2.219 24.064 17.109 22.528 40.192 53.163 69.035 93.696 88.32 28.117 13.355 41.131 16.128 75.52 16.128s47.403-2.773 75.52-16.128c40.533-19.285 71.168-48.128 93.696-88.32 7.808-13.909 12.501-17.493 22.784-17.493s14.976 3.584 22.784 17.493c22.528 40.192 53.163 69.035 93.696 88.32 28.117 13.355 41.131 16.128 75.52 16.128s47.403-2.773 75.52-16.128c40.533-19.285 71.168-48.128 93.696-88.32 8.363-14.891 12.8-18.005 24.064-17.109 14.251 1.195 22.827 12.544 19.157 25.344-4.608 16.171-27.904 48.811-50.987 71.552-17.235 17.267-37.161 31.84-59.098 43.037l-1.318 0.611-16.768 8.661 6.955 4.821c10.837 7.509 29.739 28.331 37.376 41.216 49.109 82.859 6.315 187.051-87.979 214.4-19.413 5.589-61.824 5.589-81.237 0-94.336-27.349-137.088-131.541-87.979-214.4 7.637-12.885 26.539-33.707 37.376-41.216l6.955-4.821-16.768-8.661c-12.072-6.369-22.004-12.355-31.589-18.817l1.21 0.769c-14.848-10.197-44.416-38.656-53.675-51.627-3.2-4.48-6.272-8.107-6.912-8.107s-3.712 3.627-6.912 8.107c-9.088 12.757-38.784 41.344-53.717 51.627-8.368 5.696-18.286 11.682-28.517 17.159l-1.819 0.889-16.768 8.661 6.955 4.821c10.837 7.509 29.739 28.331 37.376 41.216 43.733 73.771 15.829 165.205-62.336 204.331-20.693 10.368-33.92 13.355-61.995 13.952-3.507 0.141-7.624 0.222-11.76 0.222-6.069 0-12.098-0.174-18.082-0.516l0.829 0.038zM346.027 807.253c51.499-12.16 86.784-62.464 79.403-113.195-6.144-42.027-36.864-75.691-78.976-86.528-7.921-1.746-17.020-2.747-26.353-2.747-9.405 0-18.572 1.016-27.399 2.944l0.845-0.155c-61.909 15.915-95.744 80.043-72.619 137.515 11.904 29.568 40.917 54.485 72.277 62.080 12.971 3.157 39.637 3.2 52.821 0.085zM730.027 807.253c51.499-12.16 86.784-62.464 79.403-113.195-6.144-42.027-36.864-75.691-78.976-86.528-7.921-1.746-17.020-2.747-26.353-2.747-9.405 0-18.572 1.016-27.399 2.944l0.845-0.155c-61.909 15.915-95.744 80.043-72.619 137.515 11.904 29.568 40.917 54.485 72.277 62.080 12.971 3.157 39.637 3.2 52.821 0.085zM287.573 455.424c-27.811-6.449-51.884-19.733-71.197-37.998l0.072 0.067c-49.792-46.635-59.989-119.339-25.003-178.389 7.637-12.843 29.099-36.437 38.485-42.197l5.888-3.669-16.853-8.789c-46.251-24.235-79.957-57.173-106.325-103.936-8.576-15.232-7.083-27.136 4.352-34.645 5.547-3.627 16.512-3.584 22.144 0.085 3.591 3.010 6.603 6.566 8.943 10.563l0.102 0.189c17.323 29.653 39.339 55.467 61.696 72.32 48.299 36.395 111.403 47.019 166.955 28.117 46.763-15.915 85.248-49.536 114.987-100.437 5.717-9.728 11.477-13.653 20.181-13.653s14.464 3.925 20.181 13.653c17.323 29.653 39.339 55.467 61.696 72.32 48.299 36.395 111.403 47.019 166.955 28.117 46.763-15.915 85.248-49.536 114.987-100.437 5.717-9.728 11.477-13.653 20.181-13.653 0.141-0.003 0.307-0.005 0.473-0.005 11.311 0 20.48 9.169 20.48 20.48 0 0.137-0.001 0.274-0.004 0.41v-0.020c0 16.341-35.029 64.555-64.768 89.131-13.701 11.904-29.185 22.358-45.856 30.809l-1.291 0.593-16.853 8.789 5.888 3.669c9.387 5.76 30.848 29.355 38.485 42.197 34.987 58.965 24.747 131.797-25.003 178.389-29.269 27.392-63.232 40.747-103.552 40.747s-74.283-13.355-103.552-40.747c-49.792-46.635-59.989-119.339-25.003-178.389 7.637-12.885 29.099-36.437 38.528-42.24l5.931-3.669-16.896-8.704c-30.403-15.638-56.034-36.322-76.782-61.22l-0.317-0.391c-7.040-8.448-13.312-15.36-13.909-15.36s-6.955 7.040-14.123 15.616c-21.064 25.122-46.61 45.709-75.521 60.711l-1.364 0.644-16.896 8.704 5.931 3.669c9.429 5.803 30.891 29.355 38.528 42.24 34.987 58.965 24.747 131.797-25.003 178.389-19.499 18.493-44.026 31.871-71.318 37.874l-1.002 0.185c-16.427 3.328-47.573 3.285-63.659-0.128zM343.381 413.739c13.056-2.688 38.315-15.445 48.64-24.576 11.947-10.539 24.576-29.867 29.611-45.355 2.822-9.171 4.447-19.713 4.447-30.635s-1.625-21.464-4.647-31.398l0.2 0.763c-14.208-43.477-54.528-72.064-101.632-72.064-31.189 0-54.912 9.899-76.928 32.085-18.080 18.211-29.255 43.299-29.255 70.998 0 30.129 13.221 57.17 34.179 75.638l0.111 0.096c10.155 8.917 32.64 20.608 45.739 23.808 11.349 2.731 37.589 3.072 49.536 0.64zM727.381 413.739c13.056-2.688 38.315-15.445 48.64-24.576 11.947-10.539 24.576-29.867 29.611-45.355 3.371-10.197 4.181-16.256 4.181-30.635 0-22.315-4.608-37.76-16.597-55.68-20.437-30.592-51.627-47.019-89.216-47.019-31.189 0-54.912 9.899-76.928 32.085-18.080 18.211-29.255 43.299-29.255 70.998 0 30.129 13.221 57.17 34.179 75.638l0.111 0.096c10.155 8.917 32.64 20.608 45.739 23.808 11.349 2.731 37.589 3.072 49.536 0.64z" />
<glyph unicode="&#xe939;" glyph-name="text-align-center" d="M148.309 705.237c-5.724-3.725-9.456-10.092-9.456-17.33 0-2.507 0.448-4.91 1.268-7.133l-0.046 0.143c1.658-3.988 4.126-7.346 7.218-9.997l0.035-0.030 4.821-3.584h719.701l4.821 3.584c3.195 2.776 5.678 6.289 7.195 10.277l0.059 0.176c2.133 6.016 2.133 7.765-0.043 13.483-1.824 4.239-4.64 7.753-8.167 10.363l-0.068 0.048-5.76 3.883h-715.776l-5.803-3.883zM242.816 544.341c-13.099-10.368-9.344-30.336 6.912-36.48 6.741-2.56 517.803-2.56 524.544 0 16.768 6.357 20.096 27.349 5.845 36.949l-5.803 3.883-525.995-0.043-5.504-4.309zM146.048 383.019c-7.68-6.741-9.344-14.421-4.992-23.168 2.051-3.879 4.725-7.153 7.926-9.814l0.052-0.042 4.821-3.541h716.288l4.821 3.541c3.254 2.703 5.928 5.977 7.895 9.683l0.084 0.173c4.352 8.747 2.688 16.427-4.992 23.168l-5.973 5.248h-719.957l-5.973-5.248zM246.272 226.219c-3.261-2.088-6.017-4.641-8.263-7.602l-0.057-0.078c-3.627-5.547-3.499-16.512 0.256-22.272 6.571-9.984-10.624-9.387 273.792-9.387 287.915 0 268.245-0.768 274.048 10.496 5.717 11.051 2.475 22.272-8.32 28.843-5.333 3.243-10.752 3.328-265.728 3.328s-260.395-0.085-265.728-3.328z" />
<glyph unicode="&#xe93a;" glyph-name="text-align-justify" d="M148.309 705.237c-5.724-3.725-9.456-10.092-9.456-17.33 0-2.507 0.448-4.91 1.268-7.133l-0.046 0.143c1.658-3.988 4.126-7.346 7.218-9.997l0.035-0.030 4.821-3.584h719.701l4.821 3.584c3.195 2.776 5.678 6.289 7.195 10.277l0.059 0.176c2.133 6.016 2.133 7.765-0.043 13.483-1.824 4.239-4.64 7.753-8.167 10.363l-0.068 0.048-5.76 3.883h-715.776l-5.803-3.883zM147.029 544.384c-6.059-5.077-9.515-14.208-7.979-21.077 1.237-5.675 8.277-12.885 15.104-15.445 3.328-1.28 112.555-1.835 357.845-1.835s354.517 0.555 357.845 1.835c6.827 2.56 13.867 9.771 15.104 15.445 1.536 6.869-1.92 16-7.979 21.077l-5.12 4.309h-719.701l-5.12-4.309zM146.048 383.019c-7.68-6.741-9.344-14.421-4.992-23.168 2.051-3.879 4.725-7.153 7.926-9.814l0.052-0.042 4.821-3.541h716.288l4.821 3.541c3.254 2.703 5.928 5.977 7.895 9.683l0.084 0.173c4.352 8.747 2.688 16.427-4.992 23.168l-5.973 5.248h-719.957l-5.973-5.248zM151.040 226.944c-3.109-1.659-5.769-3.693-8.052-6.089l-0.012-0.013c-7.381-8.789-4.437-24.235 5.845-30.507 5.589-3.413 7.552-3.456 363.349-3.456h357.717l5.803 3.883c5.724 3.725 9.456 10.092 9.456 17.33 0 2.507-0.448 4.91-1.268 7.133l0.046-0.143c-1.658 3.988-4.126 7.346-7.218 9.997l-0.035 0.030-4.821 3.584-357.845 0.427c-318.165 0.384-358.4 0.128-362.965-2.176z" />
<glyph unicode="&#xe93b;" glyph-name="text-align-left" d="M148.309 705.237c-5.724-3.725-9.456-10.092-9.456-17.33 0-2.507 0.448-4.91 1.268-7.133l-0.046 0.143c1.658-3.988 4.126-7.346 7.218-9.997l0.035-0.030 4.821-3.584h719.701l4.821 3.584c3.195 2.776 5.678 6.289 7.195 10.277l0.059 0.176c2.133 6.016 2.133 7.765-0.043 13.483-1.824 4.239-4.64 7.753-8.167 10.363l-0.068 0.048-5.76 3.883h-715.776l-5.803-3.883zM147.029 544.384c-6.059-5.077-9.515-14.208-7.979-21.077 1.237-5.675 8.277-12.885 15.104-15.445 3.285-1.28 84.565-1.835 262.443-1.835 275.669 0 264.192-0.341 271.829 8.235 4.48 5.035 5.547 17.195 2.091 23.893-5.845 11.307 14.037 10.539-275.584 10.539h-262.784l-5.12-4.309zM146.048 383.019c-7.68-6.741-9.344-14.421-4.992-23.168 2.051-3.879 4.725-7.153 7.926-9.814l0.052-0.042 4.821-3.541h716.288l4.821 3.541c3.254 2.703 5.928 5.977 7.895 9.683l0.084 0.173c4.352 8.747 2.688 16.427-4.992 23.168l-5.973 5.248h-719.957l-5.973-5.248zM151.040 226.944c-3.109-1.659-5.769-3.693-8.052-6.089l-0.012-0.013c-7.381-8.789-4.437-24.235 5.845-30.507 5.589-3.413 7.851-3.456 266.496-3.456 286.379 0 268.331-0.683 274.688 10.112 4.053 6.827 3.755 17.365-0.683 22.955-8.021 10.24 10.411 9.6-273.237 9.6-229.461 0-260.523-0.341-265.045-2.603z" />
<glyph unicode="&#xe93c;" glyph-name="text-align-right" d="M148.309 705.237c-5.724-3.725-9.456-10.092-9.456-17.33 0-2.507 0.448-4.91 1.268-7.133l-0.046 0.143c1.658-3.988 4.126-7.346 7.218-9.997l0.035-0.030 4.821-3.584h719.701l4.821 3.584c3.195 2.776 5.678 6.289 7.195 10.277l0.059 0.176c2.133 6.016 2.133 7.765-0.043 13.483-1.824 4.239-4.64 7.753-8.167 10.363l-0.068 0.048-5.76 3.883h-715.776l-5.803-3.883zM340.352 545.493c-3.201-2.147-5.743-5.045-7.411-8.449l-0.056-0.127c-2.773-6.699-1.408-18.048 2.773-22.741 7.552-8.491-3.669-8.149 271.744-8.149 177.877 0 259.157 0.555 262.443 1.835 6.827 2.56 13.867 9.771 15.104 15.445 1.536 6.869-1.92 16-7.979 21.077l-5.12 4.309h-263.125c-254.421 0-263.296-0.128-268.373-3.2zM146.048 383.019c-7.68-6.741-9.344-14.421-4.992-23.168 2.051-3.879 4.725-7.153 7.926-9.814l0.052-0.042 4.821-3.541h716.288l4.821 3.541c3.254 2.703 5.928 5.977 7.895 9.683l0.084 0.173c4.352 8.747 2.688 16.427-4.992 23.168l-5.973 5.248h-719.957l-5.973-5.248zM341.205 225.664c-10.069-6.784-13.056-18.731-7.211-28.672 6.357-10.795-11.691-10.112 274.859-10.112h261.035l5.803 3.883c5.724 3.725 9.456 10.092 9.456 17.33 0 2.507-0.448 4.91-1.268 7.133l0.046-0.143c-1.658 3.988-4.126 7.346-7.218 9.997l-0.035 0.030-4.821 3.584-524.843 0.896-5.803-3.925z" />
<glyph unicode="&#xe93d;" glyph-name="text-bolder" d="M245.973 786.432c-4.014-2.164-7.125-5.565-8.869-9.685l-0.048-0.129c-3.029-6.656-3.157-19.072-3.115-312.405 0.043-232.107 0.555-306.901 2.091-311.424 1.719-4.050 4.443-7.391 7.865-9.808l0.071-0.048 5.845-3.925 389.333 1.067 13.397 3.883c20.959 6.177 39.237 14.549 55.995 25.113l-0.913-0.537c55.595 36.949 87.467 103.467 80.768 168.576-6.869 67.115-51.115 126.549-111.957 150.528l-13.995 5.547 14.891 15.36c17.323 17.92 30.336 38.101 37.675 58.411 6.436 16.95 10.162 36.548 10.162 57.017 0 61.458-33.593 115.069-83.419 143.474l-0.812 0.426c-16.71 9.251-36.153 16.112-56.768 19.485l-1.045 0.141c-8.747 1.195-68.224 1.835-172.373 1.792-144.939-0.043-159.531-0.299-164.779-2.859zM595.925 741.333c20.608-7.040 34.901-15.915 50.219-31.189 24.533-24.576 35.243-50.091 35.499-84.651 0.171-20.949-1.792-31.787-8.747-48.555-14.336-34.56-40.576-57.941-79.829-71.125l-11.947-4.053-302.933-0.981v246.016l304.64-0.981 13.099-4.48zM642.56 454.571c26.027-8.235 46.507-20.181 63.189-36.821 26.496-26.539 40.064-59.605 40.064-97.749 0.003-0.344 0.005-0.749 0.005-1.156 0-66.21-46.895-121.468-109.282-134.371l-0.888-0.154c-9.984-2.091-39.040-2.517-184.661-2.517l-172.8-0.043v276.565l177.92-0.512c156.373-0.469 178.944-0.896 186.453-3.243z" />
<glyph unicode="&#xe93e;" glyph-name="text-color" d="M498.432 847.787c-3.968-3.627-33.493-68.992-132.523-293.12 92.383 239.72 48.86 142.706 5.618 45.539l-135.239-340.28c-0.782-2.12-1.235-4.568-1.235-7.122 0-5.621 2.192-10.73 5.767-14.52l-0.010 0.010c10.624-11.392 27.307-8.32 34.645 6.443 2.176 4.309 30.677 68.352 63.317 142.251l59.349 134.4h227.755l59.349-134.4c64.45-155.304 85.684-202.109 107.122-248.8l-43.847 106.549c7.040-14.080 22.784-17.451 33.451-7.211 4.21 3.666 6.856 9.034 6.856 15.021 0 2.465-0.449 4.826-1.269 7.004l0.045-0.137c-1.109 3.755-59.392 136.619-129.493 295.253-98.901 223.872-128.555 289.493-132.523 293.12-4.139 3.797-6.699 4.693-13.568 4.693s-9.429-0.896-13.568-4.693zM559.36 672c25.6-57.984 46.507-105.984 46.507-106.667 0-0.725-42.24-1.28-93.867-1.28s-93.867 0.555-93.867 1.28c-0.043 2.091 92.928 212.011 93.867 212.011 0.469 0 21.803-47.403 47.36-105.344zM242.517 80.085c-4.629-3.893-7.55-9.687-7.55-16.163 0-9.76 6.633-17.97 15.637-20.369l0.147-0.033c3.925-1.067 97.579-1.707 261.248-1.707s257.323 0.64 261.248 1.707c16.64 4.608 21.333 25.557 8.235 36.565l-5.205 4.395h-528.555l-5.205-4.395z" />
<glyph unicode="&#xe93f;" glyph-name="text-italic" d="M434.133 751.317c-11.477-10.581-8.704-28.757 5.333-34.603 4.779-2.005 18.347-2.475 72.32-2.475h66.475l-177.493-532.48h-73.131c-47.659 0-74.795-0.64-77.909-1.835-16.768-6.357-20.096-27.349-5.845-36.949l5.803-3.883h334.037l6.144 5.589c11.819 10.837 8.405 29.781-6.229 34.859-4.181 1.408-25.472 2.048-71.936 2.133l-65.963 0.085 177.493 532.48h73.643c66.773 0 74.24 0.299 79.531 2.987 8.277 4.224 12.501 10.667 12.373 18.944-0.128 8.747-2.517 13.227-9.387 17.408-5.248 3.243-10.069 3.328-172.288 3.328h-166.827l-6.144-5.589z" />
<glyph unicode="&#xe940;" glyph-name="text-strike-through" d="M478.933 787.584c-47.445-5.461-87.040-19.243-121.813-42.539-44.757-29.909-72.021-73.003-77.013-121.6-2.645-25.984 2.176-54.656 10.581-62.507 3.8-3.7 8.997-5.982 14.727-5.982 6.566 0 12.431 2.996 16.305 7.695l0.029 0.036c4.053 4.821 4.395 6.357 3.541 14.891-4.437 43.392-2.773 57.045 10.112 81.963 29.269 56.661 103.851 90.709 189.397 86.443 73.301-3.627 133.163-33.664 161.28-81.024 9.728-16.427 13.824-19.84 23.595-19.84 9.813 0 16.171 4.267 19.883 13.355 3.456 8.491 1.835 14.549-8.235 30.72-30.635 48.981-86.485 83.413-154.667 95.189-22.613 3.925-67.243 5.547-87.723 3.2zM145.835 462.763c-6.229-6.229-8.533-12.501-6.912-18.901 2.662-7.624 8.508-13.54 15.902-16.24l0.183-0.059c4.096-1.109 73.984-1.749 202.624-1.749h196.395l20.992-6.912c83.755-27.605 124.459-58.283 136.064-102.528 3.84-14.677 3.797-40.235-0.128-53.547-15.445-52.608-70.357-93.44-146.347-108.672-27.904-5.632-77.312-5.632-105.216 0-49.067 9.856-87.509 28.971-115.499 57.429-20.011 20.352-30.080 40.832-34.048 69.291-2.731 19.371-5.589 24.235-15.957 27.093-1.867 0.636-4.018 1.003-6.255 1.003-5.758 0-10.948-2.432-14.599-6.325l-0.010-0.011c-6.443-6.443-7.68-13.952-5.248-31.317 5.077-36.395 21.888-67.499 51.541-95.403 78.251-73.6 219.093-90.965 325.675-40.107 85.461 40.789 127.019 114.389 107.563 190.549-9.045 35.328-31.872 65.707-66.603 88.533l-15.275 10.069 99.499 0.853c92.203 0.811 99.883 1.067 104.235 3.925 5.717 3.755 11.349 12.629 11.349 17.92 0 5.461-4.181 13.013-9.6 17.237l-4.523 3.584h-720.085l-5.717-5.717z" />
<glyph unicode="&#xe941;" glyph-name="text-t" d="M177.877 751.061l-6.357-5.845-0.939-142.933 3.925-5.888c3.715-5.78 10.113-9.554 17.393-9.554 2.564 0 5.018 0.468 7.283 1.324l-0.142-0.047c4.239 1.824 7.753 4.64 10.363 8.167l0.048 0.068c3.84 5.675 3.883 6.4 3.883 61.824v56.064h276.48v-532.48h-53.632c-33.877 0-55.424-0.683-58.453-1.835-16.768-6.357-20.096-27.349-5.845-36.949l5.803-3.883h134.144c129.835 0 134.315 0.128 139.563 3.328 6.869 4.181 9.259 8.661 9.387 17.408 0.128 8.277-4.096 14.72-12.373 18.944-5.205 2.645-11.819 2.987-60.032 2.987h-54.187v532.48h276.48v-56.064c0-55.552 0.043-56.107 3.883-61.867 5.547-8.235 15.531-11.563 24.491-8.192 4.279 1.837 7.824 4.683 10.447 8.251l0.049 0.069 3.883 5.845-0.939 142.933-6.357 5.845-6.4 5.845h-655.445l-6.4-5.845z" />
<glyph unicode="&#xe942;" glyph-name="text-underline" d="M243.883 753.024c-10.624-7.168-10.368-2.773-9.557-159.957 0.811-149.504 0.811-150.229 8.661-180.224 25.685-98.176 99.968-174.208 195.669-200.235 21.999-6.116 47.261-9.631 73.344-9.631s51.345 3.515 75.338 10.098l-1.994-0.466c90.174 25.567 160.504 93.139 189.426 179.671l0.568 1.961c7.808 24.277 11.093 40.576 13.141 65.323 2.475 30.123 2.048 276.181-0.512 283.648-3.405 7.909-11.010 13.406-19.932 13.695l-0.036 0.001c-8.958-0.29-16.563-5.787-19.912-13.55l-0.056-0.146c-1.493-4.395-2.048-42.155-2.133-146.005-0.085-120.32-0.469-142.336-2.816-156.16-16.19-92.316-84.323-165.25-172.614-188.225l-1.637-0.362c-119.168-30.208-242.987 39.040-280.235 156.715-10.283 32.427-10.368 34.517-10.496 188.16-0.085 103.765-0.64 141.483-2.133 145.877-4.309 12.501-20.651 17.493-32.085 9.813zM148.821 113.451c-5.866-4.184-9.84-10.695-10.573-18.157l-0.008-0.104c0-5.589 6.144-14.677 12.032-17.835 5.589-2.987 20.309-3.115 361.728-3.115s356.139 0.128 361.728 3.115c5.888 3.157 12.032 12.245 12.032 17.835-0.741 7.566-4.715 14.077-10.504 18.209l-0.077 0.052c-5.589 3.413-7.552 3.456-363.179 3.456s-357.589-0.043-363.179-3.456z" />
<glyph unicode="&#xe943;" glyph-name="time" d="M472.747 851.413c-54.784-6.528-98.517-19.285-142.507-41.515-89.744-45.874-158.854-121.397-195.388-213.397l-0.964-2.752c-17.052-43.255-26.936-93.354-26.936-145.762 0-36.698 4.847-72.264 13.935-106.093l-0.652 2.852c19.115-71.68 52.608-129.579 105.771-182.741 35.243-35.2 65.792-57.259 107.648-77.568 59.221-28.757 113.237-41.259 178.347-41.259 91.392 0 173.141 27.861 248.32 84.523 17.579 13.269 58.709 54.4 71.979 71.979 44.032 58.411 70.443 120.789 80.896 191.147 4.949 33.195 4.949 81.152 0 114.347-19.805 134.047-102.768 245.202-217.142 303.661l-2.293 1.064c-33.091 17.194-71.487 30.302-111.978 37.294l-2.369 0.338c-16.256 2.901-28.757 3.755-60.587 4.139-5.432 0.123-11.833 0.193-18.251 0.193-9.786 0-19.535-0.163-29.242-0.486l1.413 0.037zM560.043 807.083c161.408-20.864 290.005-149.76 311.125-311.808 1.61-14.183 2.528-30.621 2.528-47.275s-0.918-33.092-2.707-49.268l0.179 1.994c-24.065-178.792-175.67-315.198-359.135-315.198-31.505 0-62.071 4.022-91.211 11.582l2.517-0.554c-115.884 30.005-207.703 112.889-249.481 220.713l-0.844 2.476c-25.429 67.029-29.995 145.749-12.587 216.149 35.328 142.72 156.8 251.819 302.080 271.189 25.003 3.328 71.808 3.328 97.536 0zM497.493 718.848c-3.637-3.371-6.1-7.964-6.731-13.123l-0.010-0.104c-0.597-4.181-0.896-65.237-0.597-135.68 0.469-118.955 0.725-128.384 3.541-132.651 7.253-11.136 1.323-10.581 118.912-11.136 58.709-0.299 109.995-0.043 114.005 0.512 19.371 2.816 26.667 25.259 12.203 37.419l-5.205 4.395h-199.424v117.333c0 74.752-0.64 119.595-1.749 123.605-2.645 9.557-10.283 15.061-20.736 15.061-7.424 0-9.344-0.768-14.208-5.632z" />
</font>
</defs>
</svg>
